<svg width="24" height="24" viewBox="0 0 24 24" fill="none" xmlns="http://www.w3.org/2000/svg">
<g clip-path="url(#clip0_484_892)">
<path d="M21.1406 14.6318V4.96875C21.1406 3.80564 20.1944 2.85938 19.0312 2.85938H18.3516V2.10938C18.3516 0.946266 17.4053 0 16.2422 0C15.0791 0 14.1328 0.946266 14.1328 2.10938V2.85938H12.7266V2.10938C12.7266 0.946266 11.7803 0 10.6172 0C9.45408 0 8.50781 0.946266 8.50781 2.10938V2.85938H7.10156V2.10938C7.10156 0.946266 6.1553 0 4.99219 0C3.82908 0 2.88281 0.946266 2.88281 2.10938V2.85938H2.15625C0.993141 2.85938 0.046875 3.80564 0.046875 4.96875V19.0312C0.046875 20.1944 0.993141 21.1406 2.15625 21.1406H14.563C15.3446 22.8272 17.0534 24 19.0312 24C21.7452 24 23.9531 21.792 23.9531 19.0781C23.9531 17.1187 22.802 15.4231 21.1406 14.6318ZM15.5391 2.10938C15.5391 1.72167 15.8545 1.40625 16.2422 1.40625C16.6299 1.40625 16.9453 1.72167 16.9453 2.10938V2.85938H15.5391V2.10938ZM9.91406 2.10938C9.91406 1.72167 10.2295 1.40625 10.6172 1.40625C11.0049 1.40625 11.3203 1.72167 11.3203 2.10938V2.85938H9.91406V2.10938ZM4.28906 2.10938C4.28906 1.72167 4.60448 1.40625 4.99219 1.40625C5.37989 1.40625 5.69531 1.72167 5.69531 2.10938V2.85938H4.28906V2.10938ZM2.15625 4.26562H5.69531V4.96875C5.69531 5.35645 5.37989 5.67188 4.99219 5.67188C4.60388 5.67188 4.28906 5.98669 4.28906 6.375C4.28906 6.76331 4.60388 7.07812 4.99219 7.07812C6.1553 7.07812 7.10156 6.13186 7.10156 4.96875V4.26562H11.3203V4.96875C11.3203 5.35645 11.0049 5.67188 10.6172 5.67188C10.2289 5.67188 9.91406 5.98669 9.91406 6.375C9.91406 6.76331 10.2289 7.07812 10.6172 7.07812C11.7803 7.07812 12.7266 6.13186 12.7266 4.96875V4.26562H16.9453V4.96875C16.9453 5.35645 16.6299 5.67188 16.2422 5.67188C15.8539 5.67188 15.5391 5.98669 15.5391 6.375C15.5391 6.76331 15.8539 7.07812 16.2422 7.07812C17.4053 7.07812 18.3516 6.13186 18.3516 4.96875V4.26562H19.0312C19.419 4.26562 19.7344 4.58105 19.7344 4.96875V8.48438H1.45312V4.96875C1.45312 4.58105 1.76855 4.26562 2.15625 4.26562ZM2.15625 19.7344C1.76855 19.7344 1.45312 19.419 1.45312 19.0312V9.89062H19.7344V14.2067C16.5074 13.7431 13.7197 16.4952 14.1532 19.7344H2.15625ZM19.0312 22.5938C17.0927 22.5938 15.5156 21.0166 15.5156 19.0781C15.5156 17.1396 17.0927 15.5625 19.0312 15.5625C20.9698 15.5625 22.5469 17.1396 22.5469 19.0781C22.5469 21.0166 20.9698 22.5938 19.0312 22.5938Z" fill="#363636"/>
<path d="M20.4375 18.3281H19.7344V17.625C19.7344 17.2367 19.4196 16.9219 19.0312 16.9219C18.6429 16.9219 18.3281 17.2367 18.3281 17.625V19.0312C18.3281 19.4196 18.6429 19.7344 19.0312 19.7344H20.4375C20.8258 19.7344 21.1406 19.4196 21.1406 19.0312C21.1406 18.6429 20.8258 18.3281 20.4375 18.3281Z" fill="#363636"/>
<path d="M4.96875 11.2969H3.5625C3.17419 11.2969 2.85938 11.6117 2.85938 12C2.85938 12.3883 3.17419 12.7031 3.5625 12.7031H4.96875C5.35706 12.7031 5.67188 12.3883 5.67188 12C5.67188 11.6117 5.35706 11.2969 4.96875 11.2969Z" fill="#363636"/>
<path d="M4.96875 14.1094H3.5625C3.17419 14.1094 2.85938 14.4242 2.85938 14.8125C2.85938 15.2008 3.17419 15.5156 3.5625 15.5156H4.96875C5.35706 15.5156 5.67188 15.2008 5.67188 14.8125C5.67188 14.4242 5.35706 14.1094 4.96875 14.1094Z" fill="#363636"/>
<path d="M4.96875 16.9219H3.5625C3.17419 16.9219 2.85938 17.2367 2.85938 17.625C2.85938 18.0133 3.17419 18.3281 3.5625 18.3281H4.96875C5.35706 18.3281 5.67188 18.0133 5.67188 17.625C5.67188 17.2367 5.35706 16.9219 4.96875 16.9219Z" fill="#363636"/>
<path d="M9.1875 11.2969H7.78125C7.39294 11.2969 7.07812 11.6117 7.07812 12C7.07812 12.3883 7.39294 12.7031 7.78125 12.7031H9.1875C9.57581 12.7031 9.89062 12.3883 9.89062 12C9.89062 11.6117 9.57581 11.2969 9.1875 11.2969Z" fill="#363636"/>
<path d="M9.1875 14.1094H7.78125C7.39294 14.1094 7.07812 14.4242 7.07812 14.8125C7.07812 15.2008 7.39294 15.5156 7.78125 15.5156H9.1875C9.57581 15.5156 9.89062 15.2008 9.89062 14.8125C9.89062 14.4242 9.57581 14.1094 9.1875 14.1094Z" fill="#363636"/>
<path d="M9.1875 16.9219H7.78125C7.39294 16.9219 7.07812 17.2367 7.07812 17.625C7.07812 18.0133 7.39294 18.3281 7.78125 18.3281H9.1875C9.57581 18.3281 9.89062 18.0133 9.89062 17.625C9.89062 17.2367 9.57581 16.9219 9.1875 16.9219Z" fill="#363636"/>
<path d="M12 12.7031H13.4062C13.7946 12.7031 14.1094 12.3883 14.1094 12C14.1094 11.6117 13.7946 11.2969 13.4062 11.2969H12C11.6117 11.2969 11.2969 11.6117 11.2969 12C11.2969 12.3883 11.6117 12.7031 12 12.7031Z" fill="#363636"/>
<path d="M13.4062 14.1094H12C11.6117 14.1094 11.2969 14.4242 11.2969 14.8125C11.2969 15.2008 11.6117 15.5156 12 15.5156H13.4062C13.7946 15.5156 14.1094 15.2008 14.1094 14.8125C14.1094 14.4242 13.7946 14.1094 13.4062 14.1094Z" fill="#363636"/>
<path d="M16.2188 12.7031H17.625C18.0133 12.7031 18.3281 12.3883 18.3281 12C18.3281 11.6117 18.0133 11.2969 17.625 11.2969H16.2188C15.8304 11.2969 15.5156 11.6117 15.5156 12C15.5156 12.3883 15.8304 12.7031 16.2188 12.7031Z" fill="#363636"/>
</g>
<defs>
<clipPath id="clip0_484_892">
<rect width="24" height="24" fill="white"/>
</clipPath>
</defs>
</svg>
