<?xml version="1.0"?>
<svg xmlns="http://www.w3.org/2000/svg" xmlns:xlink="http://www.w3.org/1999/xlink" xmlns:svgjs="http://svgjs.com/svgjs" version="1.1" width="512" height="512" x="0" y="0" viewBox="0 0 512 512" style="enable-background:new 0 0 512 512" xml:space="preserve" class=""><g><g><path d="m265.763 225.885c0-31.642-25.743-57.385-57.386-57.385-31.642 0-57.385 25.743-57.385 57.385s25.743 57.385 57.385 57.385c3.173 0 6.282-.27 9.317-.768-12.989 21.923-28.097 33.663-28.529 33.994-6.611 4.952-7.977 14.323-3.043 20.957 2.944 3.958 7.467 6.049 12.048 6.049 3.112 0 6.251-.965 8.94-2.965 2.036-1.515 49.747-37.727 57.974-105.834.446-2.876.679-5.82.679-8.818zm-84.771 0c0-15.1 12.285-27.385 27.385-27.385 15.101 0 27.386 12.285 27.386 27.385 0 1.398-.106 2.772-.31 4.114-.01.069-.026.136-.034.205-2.078 13.054-13.411 23.065-27.042 23.065-15.1.001-27.385-12.285-27.385-27.384z" fill="#363636" data-original="#000000"/><path d="m105.992 168.5h-30.992c-8.284 0-15 6.716-15 15s6.716 15 15 15h15.992v130c0 8.284 6.716 15 15 15s15-6.716 15-15v-145c0-8.284-6.716-15-15-15z" fill="#363636" data-original="#000000"/><path d="m497 108.5h-95v-55.1c0-12.903 10.497-23.4 23.4-23.4h24.859c8.284 0 15-6.716 15-15s-6.716-15-15-15h-24.859c-15.065 0-28.683 6.28-38.4 16.349-9.718-10.069-23.335-16.349-38.4-16.349h-24.86c-8.284 0-15 6.716-15 15s6.716 15 15 15h24.86c12.903 0 23.4 10.497 23.4 23.4v55.1h-357c-8.284 0-15 6.716-15 15v265c0 8.284 6.716 15 15 15h357v55.1c0 12.903-10.497 23.4-23.4 23.4h-24.86c-8.284 0-15 6.716-15 15s6.716 15 15 15h24.86c15.065 0 28.683-6.28 38.4-16.349 9.718 10.069 23.335 16.349 38.4 16.349h24.859c8.284 0 15-6.716 15-15s-6.716-15-15-15h-24.859c-12.903 0-23.4-10.497-23.4-23.4v-55.1h95c8.284 0 15-6.716 15-15v-265c0-8.284-6.716-15-15-15zm-467 265v-235h342v235zm452 0h-80v-235h80z" fill="#363636" data-original="#000000"/></g></g></svg>
