<svg width="24" height="24" viewBox="0 0 24 24" fill="none" xmlns="http://www.w3.org/2000/svg">
<g clip-path="url(#clip0_309_1887)">
<path d="M24 5.22107C24 4.00325 23.0092 3.01245 21.7914 3.01245H2.20862C0.991035 3.0125 0.000421877 4.00283 0 5.22144V5.22182V18.7781C0 20.0111 1.00088 20.9874 2.20937 20.9874H21.7906C23.0236 20.9874 24 19.9866 24 18.7781V5.22182C24 5.22173 24 5.22163 24 5.22154C24 5.2214 24 5.22126 24 5.22107ZM2.20862 4.41875H21.7914C22.2338 4.41875 22.5937 4.77871 22.5937 5.22224C22.5937 5.45793 22.4766 5.6767 22.2802 5.80757L12.4455 12.3643C12.1749 12.5447 11.8252 12.5448 11.5545 12.3643C11.5545 12.3643 1.71962 5.80743 1.7198 5.80757C1.71985 5.80762 1.71966 5.80748 1.71962 5.80743C1.5234 5.6767 1.40626 5.45793 1.40626 5.22107C1.40626 4.77866 1.76621 4.41875 2.20862 4.41875ZM21.7906 19.5812H2.20937C1.7716 19.5812 1.40626 19.2272 1.40626 18.7781V7.28869L10.7744 13.5343C11.1467 13.7825 11.5733 13.9066 12 13.9066C12.4267 13.9066 12.8534 13.7825 13.2256 13.5343L22.5937 7.28869V18.7781C22.5937 19.2158 22.2398 19.5812 21.7906 19.5812Z" fill="#363636"/>
</g>
<defs>
<clipPath id="clip0_309_1887">
<rect width="24" height="24" fill="white"/>
</clipPath>
</defs>
</svg>
