<svg width="324" height="241" viewBox="0 0 324 241" fill="none" xmlns="http://www.w3.org/2000/svg">
<g clip-path="url(#clip0_147_4427)">
<path d="M323.056 211.537H0V211.699H323.056V211.537Z" fill="#EBEBEB"/>
<path d="M203.958 215.937H187.508V216.099H203.958V215.937Z" fill="#EBEBEB"/>
<path d="M294.266 219.433H255.286V219.594H294.266V219.433Z" fill="#EBEBEB"/>
<path d="M184.006 216.015H143.734V216.176H184.006V216.015Z" fill="#EBEBEB"/>
<path d="M117.618 220.848H109.193V221.009H117.618V220.848Z" fill="#EBEBEB"/>
<path d="M164.171 220.848H125.805V221.009H164.171V220.848Z" fill="#EBEBEB"/>
<path d="M58.7381 218.121H33.8951V218.283H58.7381V218.121Z" fill="#EBEBEB"/>
<path d="M153.129 182.721H28.3708C27.3935 182.719 26.4567 182.329 25.7662 181.638C25.0758 180.946 24.688 180.009 24.688 179.031V3.657C24.6965 2.68526 25.088 1.75612 25.7776 1.0714C26.4672 0.386671 27.399 0.00166464 28.3708 0H153.129C154.107 0 155.046 0.388693 155.737 1.08057C156.429 1.77245 156.818 2.71084 156.818 3.6893V179.031C156.818 180.01 156.429 180.948 155.737 181.64C155.046 182.332 154.107 182.721 153.129 182.721ZM28.3708 0.129223C27.4363 0.130935 26.5407 0.503364 25.8805 1.16476C25.2203 1.82617 24.8495 2.72249 24.8495 3.657V179.031C24.8495 179.966 25.2203 180.862 25.8805 181.524C26.5407 182.185 27.4363 182.557 28.3708 182.559H153.129C154.064 182.557 154.96 182.185 155.621 181.524C156.283 180.863 156.655 179.966 156.656 179.031V3.657C156.655 2.7219 156.283 1.82559 155.621 1.16437C154.96 0.503154 154.064 0.130931 153.129 0.129223H28.3708Z" fill="#EBEBEB"/>
<path d="M292.889 182.721H168.125C167.147 182.719 166.21 182.33 165.518 181.638C164.827 180.947 164.437 180.009 164.436 179.031V3.657C164.446 2.68467 164.839 1.75554 165.529 1.07099C166.22 0.386446 167.153 0.00164648 168.125 0H292.889C293.86 0.00336269 294.79 0.389121 295.478 1.07366C296.167 1.75821 296.557 2.68638 296.566 3.657V179.031C296.566 180.008 296.179 180.944 295.49 181.636C294.801 182.327 293.866 182.717 292.889 182.721ZM168.125 0.129223C167.19 0.130931 166.294 0.503154 165.632 1.16437C164.971 1.82559 164.599 2.7219 164.597 3.657V179.031C164.599 179.966 164.971 180.863 165.632 181.524C166.294 182.185 167.19 182.557 168.125 182.559H292.889C293.824 182.557 294.721 182.185 295.382 181.524C296.043 180.863 296.415 179.966 296.417 179.031V3.657C296.415 2.7219 296.043 1.82559 295.382 1.16437C294.721 0.503154 293.824 0.130931 292.889 0.129223H168.125Z" fill="#EBEBEB"/>
<path d="M126.612 155.5H83.7103L81.1065 125.456H124.008L126.612 155.5Z" fill="#E6E6E6"/>
<path d="M128.835 155.5H85.933L83.3291 125.456H126.231L128.835 155.5Z" fill="#F0F0F0"/>
<path d="M91.7997 149.045L90.3653 131.904H120.364L121.799 149.045H91.7997Z" fill="white"/>
<path d="M136.259 155.5H131.225V211.537H136.259V155.5Z" fill="#E6E6E6"/>
<path d="M137.848 155.5H134.353V211.537H137.848V155.5Z" fill="#F0F0F0"/>
<path d="M89.1248 161.683H137.848V155.5H89.1248V161.683Z" fill="#F0F0F0"/>
<path d="M90.8434 161.683H85.8102V211.537H90.8434V161.683Z" fill="#E6E6E6"/>
<path d="M92.4329 161.683H88.9374V211.537H92.4329V161.683Z" fill="#F0F0F0"/>
<path d="M55.0165 161.683H49.9833V211.537H55.0165V161.683Z" fill="#E6E6E6"/>
<path d="M56.6059 161.683H53.1105V211.537H56.6059V161.683Z" fill="#F0F0F0"/>
<path d="M104.405 161.683H99.3721V211.537H104.405V161.683Z" fill="#E6E6E6"/>
<path d="M105.988 161.683H102.493V211.537H105.988V161.683Z" fill="#F0F0F0"/>
<path d="M89.1248 155.5H49.9833V161.683H89.1248V155.5Z" fill="#E6E6E6"/>
<path d="M235.082 15.7716H83.678V100.063H235.082V15.7716Z" fill="#E0E0E0"/>
<path d="M243.397 15.7716H84.4405V100.063H243.397V15.7716Z" fill="#F5F5F5"/>
<path d="M240.8 97.4661V18.369L87.0378 18.369V97.4661L240.8 97.4661Z" fill="white"/>
<path d="M149.297 97.4661L178.327 18.369H130.418L101.388 97.4661H149.297Z" fill="#F5F5F5"/>
<path d="M195.41 97.4661L224.44 18.369H188.297L159.267 97.4661H195.41Z" fill="#F5F5F5"/>
<path d="M283.068 131.032H270.198V211.537H283.068V131.032Z" fill="#E6E6E6"/>
<path d="M279.683 211.537H283.068V205.341H276.136L279.683 211.537Z" fill="#FAFAFA"/>
<path d="M164.403 131.032H151.533V211.537H164.403V131.032Z" fill="#E6E6E6"/>
<path d="M283.068 131.032H161.451V209.864H283.068V131.032Z" fill="#FAFAFA"/>
<path d="M280.768 156.469H163.757V134.204H280.768V156.469ZM164.403 155.823H280.122V134.85H164.403V155.823Z" fill="#E6E6E6"/>
<path d="M260.17 145.014H186.623C183.212 145.014 179.923 142.261 177.578 137.454L177.358 136.995H269.429L269.209 137.454C266.845 142.261 263.614 145.014 260.17 145.014ZM178.418 137.622C180.601 141.906 183.586 144.348 186.623 144.348H260.17C263.22 144.348 266.192 141.906 268.376 137.622H178.418Z" fill="#E6E6E6"/>
<path d="M164.836 211.537H161.451V205.341H168.383L164.836 211.537Z" fill="#FAFAFA"/>
<path d="M280.768 181.558H163.757V159.318H280.768V181.558ZM164.403 180.911H280.122V159.964H164.403V180.911Z" fill="#E6E6E6"/>
<path d="M260.17 170.128H186.623C183.212 170.128 179.923 167.369 177.578 162.568L177.358 162.103H269.429L269.209 162.568C266.845 167.343 263.614 170.128 260.17 170.128ZM178.418 162.749C180.601 167.033 183.586 169.482 186.623 169.482H260.17C263.22 169.482 266.192 167.033 268.376 162.749H178.418Z" fill="#E6E6E6"/>
<path d="M280.768 206.691H163.757V184.426H280.768V206.691ZM164.403 206.045H280.122V185.072H164.403V206.045Z" fill="#E6E6E6"/>
<path d="M260.17 195.236H186.623C183.212 195.236 179.923 192.483 177.578 187.683L177.358 187.218H269.429L269.209 187.683C266.845 192.483 263.614 195.236 260.17 195.236ZM178.418 187.864C180.601 192.147 183.586 194.59 186.623 194.59H260.17C263.22 194.59 266.192 192.147 268.376 187.864H178.418Z" fill="#E6E6E6"/>
<path d="M78.1667 141.68V143.243H77.1717L76.3447 155.5H64.1719L63.3513 143.243H62.3499V141.68H78.1667Z" fill="#E6E6E6"/>
<path d="M74.1608 111.267C73.1658 103.966 63.3126 101.886 50.8103 101.614C38.9154 101.362 35.1033 97.156 35.1033 97.156C35.1033 97.156 35.1421 114.194 52.2834 120.371C68.559 126.225 75.1623 118.581 74.1608 111.267Z" fill="#E6E6E6"/>
<path d="M68.0873 127.814C68.2941 124.816 73.0883 119.298 84.6214 121.805C92.9562 123.621 96.0576 119.298 96.0576 119.298C96.0576 119.298 95.2822 131.497 82.7477 135.16C70.8398 138.643 67.7191 133.099 68.0873 127.814Z" fill="#E6E6E6"/>
<path d="M70.717 146.28C70.7819 146.281 70.8462 146.267 70.9054 146.24C70.9645 146.214 71.0171 146.174 71.0595 146.125C71.8929 145.136 71.2081 142.772 70.2647 139.496C69.0501 135.296 67.5382 130.063 68.8175 126.27C69.5266 124.267 70.3551 122.307 71.2985 120.403C73.1076 116.578 74.6712 113.296 73.3661 109.82C73.3457 109.765 73.3146 109.714 73.2745 109.671C73.2344 109.627 73.1862 109.593 73.1326 109.568C73.0789 109.544 73.021 109.53 72.9621 109.528C72.9032 109.526 72.8445 109.536 72.7894 109.557C72.7343 109.578 72.6839 109.61 72.6411 109.65C72.5984 109.691 72.564 109.739 72.5402 109.793C72.5163 109.847 72.5033 109.905 72.502 109.964C72.5007 110.023 72.5111 110.082 72.5326 110.136C73.7021 113.231 72.2871 116.229 70.4909 120.028C69.5354 121.963 68.694 123.952 67.971 125.986C66.6077 130.043 68.1584 135.425 69.4054 139.741C70.142 142.326 70.9044 144.91 70.381 145.556C70.3395 145.601 70.3077 145.654 70.2877 145.711C70.2676 145.769 70.2598 145.83 70.2646 145.891C70.2695 145.952 70.287 146.011 70.3159 146.064C70.3448 146.118 70.3846 146.165 70.4327 146.202C70.5153 146.261 70.6161 146.289 70.717 146.28Z" fill="#E6E6E6"/>
<path d="M161.528 240.716C230.715 240.716 286.803 237.441 286.803 233.402C286.803 229.362 230.715 226.088 161.528 226.088C92.3408 226.088 36.2534 229.362 36.2534 233.402C36.2534 237.441 92.3408 240.716 161.528 240.716Z" fill="#F5F5F5"/>
<path d="M161.502 197.743H69.7543L64.734 50.1899H156.482L161.502 197.743Z" fill="#E5AC00"/>
<path d="M166.083 193.162H74.3353L69.3085 45.6089H161.056L166.083 193.162Z" fill="#E5AC00"/>
<path opacity="0.3" d="M166.083 193.162H74.3353L69.3085 45.6089H161.056L166.083 193.162Z" fill="white"/>
<path d="M135.343 106.327C145.167 96.3335 144.749 79.9931 134.409 69.8293C124.07 59.6655 107.725 59.5271 97.9015 69.5202C88.0779 79.5133 88.4958 95.8537 98.835 106.017C109.174 116.181 125.519 116.32 135.343 106.327Z" fill="#E5AC00"/>
<path d="M137.926 87.9292C138.058 91.4451 137.291 94.9366 135.697 98.0732C133.976 101.453 131.348 104.287 128.107 106.257C124.866 108.227 121.14 109.255 117.347 109.225C113.465 109.204 109.657 108.163 106.305 106.205C102.953 104.248 100.174 101.443 98.2479 98.0732C96.4519 94.9848 95.4486 91.4998 95.3274 87.9292C95.2083 85.1606 95.6532 82.3968 96.6352 79.8055C97.6172 77.2142 99.1158 74.8496 101.04 72.8554C102.964 70.8612 105.273 69.279 107.828 68.205C110.382 67.1309 113.129 66.5874 115.9 66.6075C121.608 66.6479 127.082 68.8858 131.184 72.8563C135.285 76.8269 137.7 82.2249 137.926 87.9292Z" fill="white"/>
<path opacity="0.6" d="M135.684 98.0731C133.963 101.453 131.335 104.287 128.094 106.257C124.853 108.227 121.127 109.255 117.334 109.225C113.452 109.204 109.644 108.163 106.292 106.205C102.94 104.248 100.161 101.443 98.235 98.0731C103.699 94.3477 110.165 92.3674 116.778 92.3938C123.498 92.4083 130.068 94.382 135.684 98.0731Z" fill="#E5AC00"/>
<path opacity="0.6" d="M123.26 87.398C126.872 83.7234 126.719 77.7149 122.917 73.9776C119.115 70.2403 113.105 70.1894 109.493 73.8639C105.88 77.5385 106.034 83.547 109.836 87.2844C113.638 91.0217 119.648 91.0726 123.26 87.398Z" fill="#E5AC00"/>
<path d="M147.65 139.728H89.1248L88.7306 128.098H147.256L147.65 139.728Z" fill="white"/>
<path d="M148.36 160.514H89.829L89.4349 148.884H147.966L148.36 160.514Z" fill="white"/>
<path d="M125.772 150.486L111.668 152.424C111.533 152.44 111.403 152.483 111.286 152.551C111.169 152.619 111.067 152.71 110.987 152.819C110.907 152.929 110.85 153.053 110.821 153.185C110.791 153.317 110.789 153.454 110.815 153.587L112.669 163.04C112.73 163.317 112.892 163.562 113.124 163.726C113.356 163.89 113.641 163.961 113.923 163.925L128.027 161.987C128.161 161.97 128.291 161.925 128.407 161.856C128.524 161.787 128.625 161.695 128.704 161.586C128.783 161.476 128.839 161.351 128.869 161.219C128.898 161.087 128.899 160.95 128.874 160.817L127.026 151.365C126.965 151.088 126.802 150.844 126.57 150.681C126.338 150.518 126.053 150.449 125.772 150.486ZM121.721 160.061L119.137 160.404L118.885 157.354C118.618 157.239 118.384 157.061 118.2 156.837C118.017 156.612 117.891 156.346 117.832 156.062C117.784 155.842 117.783 155.614 117.829 155.394C117.875 155.174 117.967 154.965 118.099 154.783C118.23 154.6 118.399 154.447 118.593 154.333C118.787 154.22 119.003 154.148 119.227 154.124C119.686 154.064 120.15 154.18 120.528 154.447C120.907 154.713 121.171 155.112 121.269 155.564C121.325 155.837 121.308 156.121 121.219 156.385C121.131 156.649 120.974 156.885 120.765 157.07L121.721 160.061Z" fill="#E5AC00"/>
<path d="M124.377 149.976C124.127 150.007 123.875 149.945 123.669 149.8C123.464 149.655 123.32 149.439 123.265 149.194L123.084 148.27C122.826 147.009 122.12 145.885 121.095 145.105C120.071 144.326 118.799 143.944 117.515 144.031C116.867 144.068 116.235 144.244 115.661 144.547C115.087 144.85 114.585 145.273 114.189 145.788C113.793 146.302 113.512 146.895 113.366 147.528C113.22 148.16 113.211 148.816 113.341 149.452L113.548 150.518C113.572 150.636 113.571 150.758 113.545 150.876C113.52 150.994 113.47 151.105 113.398 151.202C113.327 151.3 113.236 151.381 113.132 151.441C113.028 151.501 112.912 151.539 112.792 151.552C112.542 151.587 112.288 151.526 112.082 151.38C111.876 151.235 111.732 151.017 111.681 150.77L111.506 149.872C111.329 149.033 111.323 148.166 111.489 147.325C111.655 146.483 111.989 145.683 112.472 144.974C112.955 144.265 113.576 143.661 114.298 143.198C115.021 142.735 115.829 142.423 116.675 142.28C118.509 141.972 120.392 142.382 121.932 143.425C123.472 144.469 124.551 146.065 124.945 147.882L125.152 148.942C125.176 149.061 125.175 149.185 125.148 149.304C125.121 149.423 125.069 149.535 124.996 149.632C124.923 149.73 124.83 149.811 124.723 149.87C124.616 149.929 124.498 149.965 124.377 149.976Z" fill="#E5AC00"/>
<path d="M138.701 176.802H100.6L100.348 169.23H138.443L138.701 176.802Z" fill="#E5AC00"/>
<path d="M120.319 133.913C120.33 134.189 120.286 134.465 120.187 134.723C120.089 134.982 119.939 135.217 119.747 135.416C119.555 135.615 119.325 135.773 119.07 135.88C118.815 135.987 118.541 136.041 118.264 136.039C117.695 136.034 117.148 135.811 116.738 135.416C116.328 135.02 116.086 134.482 116.061 133.913C116.05 133.637 116.095 133.361 116.193 133.103C116.291 132.845 116.441 132.609 116.633 132.41C116.825 132.211 117.056 132.054 117.311 131.947C117.565 131.84 117.839 131.785 118.116 131.787C118.686 131.79 119.233 132.013 119.644 132.409C120.054 132.805 120.296 133.343 120.319 133.913Z" fill="#263238"/>
<path d="M111.131 133.913C111.144 134.19 111.099 134.466 111.002 134.724C110.904 134.983 110.754 135.219 110.562 135.418C110.369 135.617 110.138 135.775 109.883 135.881C109.628 135.988 109.353 136.042 109.077 136.039C108.508 136.034 107.962 135.811 107.553 135.415C107.144 135.02 106.903 134.482 106.88 133.913C106.869 133.637 106.913 133.361 107.012 133.103C107.11 132.845 107.26 132.609 107.452 132.41C107.644 132.211 107.874 132.054 108.129 131.947C108.384 131.84 108.658 131.785 108.935 131.787C109.504 131.79 110.051 132.013 110.46 132.409C110.869 132.805 111.11 133.344 111.131 133.913Z" fill="#263238"/>
<path d="M102.002 133.913C102.013 134.189 101.968 134.465 101.87 134.723C101.772 134.982 101.622 135.217 101.43 135.416C101.238 135.615 101.007 135.773 100.752 135.88C100.498 135.987 100.224 136.041 99.9472 136.039C99.3776 136.036 98.8312 135.813 98.4219 135.417C98.0126 135.021 97.772 134.482 97.7504 133.913C97.739 133.637 97.7838 133.361 97.8821 133.103C97.9804 132.845 98.1302 132.609 98.3223 132.41C98.5144 132.211 98.7449 132.054 98.9998 131.947C99.2546 131.84 99.5286 131.785 99.805 131.787C100.375 131.79 100.921 132.013 101.33 132.409C101.74 132.805 101.98 133.344 102.002 133.913Z" fill="#263238"/>
<path d="M129.475 133.913C129.486 134.189 129.441 134.465 129.343 134.723C129.244 134.982 129.095 135.217 128.903 135.416C128.71 135.615 128.48 135.773 128.225 135.88C127.97 135.987 127.696 136.041 127.42 136.039C126.85 136.036 126.304 135.813 125.895 135.417C125.485 135.021 125.245 134.482 125.223 133.913C125.213 133.638 125.26 133.363 125.359 133.106C125.459 132.849 125.61 132.615 125.802 132.418C125.995 132.221 126.226 132.066 126.481 131.961C126.735 131.855 127.009 131.803 127.284 131.807C127.849 131.811 128.391 132.032 128.799 132.424C129.206 132.816 129.448 133.349 129.475 133.913Z" fill="#263238"/>
<path d="M138.63 133.913C138.642 134.19 138.598 134.466 138.5 134.724C138.402 134.983 138.252 135.219 138.06 135.418C137.868 135.617 137.637 135.775 137.382 135.881C137.126 135.988 136.852 136.042 136.575 136.039C136.006 136.034 135.461 135.811 135.052 135.415C134.643 135.02 134.402 134.482 134.378 133.913C134.367 133.637 134.412 133.361 134.51 133.103C134.609 132.845 134.758 132.609 134.95 132.41C135.143 132.211 135.373 132.054 135.628 131.947C135.883 131.84 136.157 131.785 136.433 131.787C137.003 131.79 137.549 132.013 137.958 132.409C138.368 132.805 138.608 133.344 138.63 133.913Z" fill="#263238"/>
<path d="M215.743 77.0681C216.603 78.4508 217.32 79.7689 218.057 81.1451C218.793 82.5213 219.459 83.904 220.111 85.319C221.443 88.1841 222.545 91.1505 223.406 94.1901C223.523 94.5713 223.607 94.9784 223.704 95.3725L223.846 95.9734L223.917 96.2706L224.001 96.7616C224.146 97.8756 224.079 99.0071 223.8 100.096C223.354 101.786 222.676 103.406 221.785 104.909C220.19 107.641 218.263 110.165 216.047 112.423L213.327 110.369C214.692 107.859 215.907 105.27 216.965 102.615C217.436 101.446 217.768 100.225 217.953 98.9778C218.013 98.597 217.995 98.2081 217.901 97.8342L217.643 97.0459C217.54 96.7229 217.443 96.3998 217.32 96.0703C216.337 93.4048 215.2 90.7987 213.915 88.2652C212.623 85.6808 211.234 83.0963 209.844 80.6282L215.743 77.0681Z" fill="#FF8B7B"/>
<path d="M214.018 109.471L211.046 111.041L214.458 115.034C214.458 115.034 216.59 113.593 216.687 111.396L214.018 109.471Z" fill="#FF8B7B"/>
<path d="M207.06 113.502L210.71 116.404L214.458 115.034L211.046 111.041L207.06 113.502Z" fill="#FF8B7B"/>
<path d="M194.577 55.9272C194.506 56.289 194.254 56.541 194.021 56.4958C193.789 56.4505 193.653 56.1145 193.724 55.7592C193.795 55.4038 194.047 55.1131 194.286 55.1906C194.525 55.2681 194.648 55.5653 194.577 55.9272Z" fill="#263238"/>
<path d="M194.286 56.5476C193.635 57.5596 192.848 58.4771 191.947 59.2742C192.16 59.4948 192.418 59.6667 192.703 59.7782C192.989 59.8898 193.295 59.9382 193.601 59.9203L194.286 56.5476Z" fill="#FF5652"/>
<path d="M193.123 69.2243V64.9858L198.731 65.632C198.731 65.632 198.641 69.276 195.501 70.3486L193.123 69.2243Z" fill="#FF8B7B"/>
<path d="M194.738 61.936L198.686 63.0732L198.757 65.6641L193.149 64.9857L194.738 61.936Z" fill="#FF8B7B"/>
<path opacity="0.2" d="M198.686 63.0732L194.738 61.936L193.969 63.4092C194.011 64.5699 194.374 65.6964 195.017 66.6635C195.661 67.6307 196.559 68.4007 197.614 68.8882C198.292 67.9408 198.688 66.8208 198.757 65.6576L198.686 63.0732Z" fill="black"/>
<path d="M196.295 54.2022C196.337 54.2011 196.377 54.1883 196.412 54.1653C196.446 54.1423 196.473 54.11 196.49 54.0722C196.507 54.0344 196.513 53.9925 196.507 53.9515C196.501 53.9105 196.484 53.872 196.457 53.8404C196.23 53.5841 195.945 53.3859 195.626 53.2622C195.307 53.1386 194.962 53.0931 194.622 53.1297C194.566 53.1392 194.517 53.1704 194.484 53.2164C194.451 53.2624 194.438 53.3195 194.448 53.3752C194.457 53.4313 194.488 53.4815 194.534 53.5152C194.58 53.549 194.637 53.5636 194.693 53.5561C194.963 53.5297 195.235 53.5681 195.486 53.6681C195.738 53.7681 195.962 53.9269 196.14 54.1312C196.16 54.1528 196.184 54.1702 196.211 54.1824C196.237 54.1946 196.266 54.2013 196.295 54.2022Z" fill="#263238"/>
<path d="M204.553 62.4658C203.907 65.7933 203.506 70.4001 205.845 72.6163C205.845 72.6163 204.94 75.989 198.738 75.989C191.947 75.989 195.475 73.0298 195.475 73.0298C198.298 72.1511 198.273 68.9399 197.626 66.3554L204.553 62.4658Z" fill="#FF8B7B"/>
<path d="M207.105 74.8389C207.712 73.986 207.686 71.2788 207.04 70.8007C206 70.0318 201.535 69.8509 195.533 71.2336C196.179 73.8568 194.79 75.2266 194.79 75.2266L207.105 74.8389Z" fill="#E5AC00"/>
<path d="M227.302 228.233C227.118 228.297 226.923 228.325 226.727 228.314C226.532 228.303 226.341 228.253 226.165 228.168C226.099 228.106 226.053 228.025 226.034 227.936C226.016 227.847 226.025 227.754 226.062 227.67C226.082 227.601 226.118 227.536 226.166 227.481C226.214 227.427 226.273 227.383 226.34 227.354C226.953 227.057 228.362 227.632 228.427 227.658C228.446 227.665 228.462 227.679 228.474 227.696C228.485 227.713 228.491 227.734 228.491 227.754C228.491 227.775 228.486 227.796 228.475 227.814C228.465 227.832 228.451 227.847 228.433 227.858C228.069 228.018 227.69 228.143 227.302 228.233ZM226.559 227.502C226.517 227.513 226.476 227.528 226.437 227.548C226.396 227.562 226.36 227.586 226.331 227.618C226.302 227.649 226.28 227.687 226.269 227.729C226.21 227.922 226.269 227.987 226.307 228.006C226.553 228.213 227.457 228.006 228.097 227.767C227.611 227.566 227.085 227.476 226.559 227.502Z" fill="#E5AC00"/>
<path d="M228.407 227.864H228.356C227.839 227.716 226.74 226.934 226.727 226.423C226.727 226.342 226.754 226.263 226.805 226.2C226.855 226.136 226.926 226.092 227.005 226.075C227.082 226.046 227.164 226.034 227.245 226.041C227.327 226.048 227.406 226.072 227.477 226.113C228.084 226.423 228.472 227.677 228.485 227.735C228.494 227.751 228.499 227.769 228.499 227.787C228.499 227.805 228.494 227.823 228.485 227.838C228.475 227.849 228.463 227.856 228.449 227.861C228.436 227.865 228.421 227.866 228.407 227.864ZM227.115 226.255H227.063C226.934 226.301 226.934 226.365 226.934 226.398C226.934 226.701 227.671 227.315 228.226 227.561C228.091 227.199 227.793 226.482 227.399 226.268C227.312 226.229 227.212 226.224 227.121 226.255H227.115Z" fill="#E5AC00"/>
<path d="M193.743 228.995C193.162 228.995 192.6 228.911 192.412 228.653C192.363 228.584 192.337 228.501 192.337 228.417C192.337 228.332 192.363 228.25 192.412 228.181C192.449 228.118 192.499 228.063 192.557 228.019C192.616 227.976 192.684 227.945 192.755 227.929C193.511 227.722 195.1 228.627 195.165 228.665C195.185 228.675 195.201 228.691 195.21 228.711C195.219 228.731 195.222 228.754 195.216 228.775C195.214 228.797 195.205 228.818 195.189 228.834C195.174 228.851 195.154 228.862 195.132 228.866C194.674 228.95 194.209 228.993 193.743 228.995ZM193.026 228.11C192.958 228.099 192.888 228.099 192.819 228.11C192.776 228.119 192.734 228.137 192.697 228.162C192.661 228.188 192.63 228.22 192.606 228.258C192.529 228.394 192.561 228.459 192.606 228.497C192.819 228.795 193.963 228.801 194.809 228.678C194.257 228.376 193.651 228.183 193.026 228.11Z" fill="#E5AC00"/>
<path d="M195.126 228.866H195.081C194.532 228.62 193.446 227.638 193.53 227.121C193.53 226.999 193.633 226.85 193.931 226.824C194.037 226.812 194.145 226.821 194.247 226.852C194.349 226.884 194.444 226.936 194.525 227.005C194.939 227.5 195.188 228.112 195.236 228.756C195.236 228.774 195.232 228.793 195.224 228.809C195.216 228.826 195.205 228.841 195.191 228.853C195.171 228.863 195.148 228.868 195.126 228.866ZM194.015 227.024H193.95C193.756 227.024 193.743 227.115 193.743 227.141C193.692 227.451 194.428 228.226 194.99 228.562C194.941 228.044 194.731 227.553 194.389 227.16C194.283 227.07 194.148 227.021 194.008 227.024H194.015Z" fill="#E5AC00"/>
<path d="M200.114 228.762H195.572L195.12 218.237H199.662L200.114 228.762Z" fill="#FF8B7B"/>
<path d="M233.473 226.656L229.034 227.619L224.569 217.817L229.015 216.854L233.473 226.656Z" fill="#FF8B7B"/>
<path d="M228.601 227.173L233.596 226.094C233.683 226.076 233.774 226.087 233.854 226.127C233.933 226.167 233.997 226.233 234.035 226.314L235.766 230.074C235.813 230.165 235.836 230.266 235.836 230.368C235.836 230.47 235.811 230.57 235.765 230.661C235.718 230.752 235.651 230.83 235.568 230.89C235.485 230.95 235.389 230.989 235.288 231.004C233.544 231.347 232.672 231.431 230.481 231.903C229.131 232.2 226.081 232.943 224.214 233.343C222.347 233.744 221.707 231.954 222.437 231.625C225.7 230.132 227.057 228.821 227.942 227.599C228.102 227.381 228.337 227.23 228.601 227.173Z" fill="#263238"/>
<path d="M195.604 228.233H200.566C200.656 228.233 200.744 228.264 200.814 228.32C200.884 228.377 200.934 228.455 200.954 228.543L201.852 232.581C201.878 232.679 201.881 232.781 201.861 232.88C201.841 232.979 201.797 233.072 201.734 233.151C201.671 233.23 201.591 233.294 201.499 233.336C201.407 233.378 201.307 233.399 201.206 233.395C199.416 233.363 196.832 233.259 194.583 233.259C191.947 233.259 189.679 233.402 186.591 233.402C184.724 233.402 184.207 231.515 184.988 231.34C188.542 230.565 191.45 230.481 194.519 228.588C194.841 228.372 195.217 228.249 195.604 228.233Z" fill="#263238"/>
<path d="M213.973 73.6566C218.231 74.6323 221.726 85.5063 221.726 85.5063L213.217 92.0127C211.008 89.6512 209.45 86.7571 208.694 83.6132C207.189 77.9145 209.618 72.6487 213.973 73.6566Z" fill="#E5AC00"/>
<path opacity="0.4" d="M213.973 73.6566C218.231 74.6323 221.726 85.5063 221.726 85.5063L213.217 92.0127C211.008 89.6512 209.45 86.7571 208.694 83.6132C207.189 77.9145 209.618 72.6487 213.973 73.6566Z" fill="black"/>
<path d="M191.572 86.6242C190.513 87.7678 189.453 88.7887 188.342 89.8547C187.793 90.3716 187.237 90.8885 186.668 91.386L185.809 92.142L185.596 92.3293L185.228 92.6266C184.849 92.9294 184.429 93.1773 183.981 93.3631C183.482 93.5748 182.946 93.6847 182.404 93.6862C181.941 93.6881 181.482 93.6072 181.047 93.4471C180.565 93.2636 180.126 92.9845 179.755 92.6266C179.282 92.1639 178.935 91.5878 178.747 90.9531C178.649 90.6402 178.586 90.3173 178.56 89.9904C178.526 89.6078 178.526 89.223 178.56 88.8403C178.592 88.5302 178.631 88.2588 178.682 88.0069C178.859 87.1259 179.11 86.2613 179.432 85.4224C179.723 84.625 180.057 83.8442 180.433 83.0835C180.847 82.2629 181.241 81.662 181.635 80.9771C183.236 78.3547 185.063 75.8772 187.095 73.5727C189.106 71.2819 191.323 69.1797 193.717 67.2925L196.095 69.7413C194.428 71.9768 192.787 74.3739 191.269 76.7322C189.758 79.0771 188.377 81.5037 187.134 84.001C186.856 84.6083 186.487 85.2932 186.313 85.7842C186.082 86.3547 185.881 86.937 185.712 87.5287C185.549 88.0616 185.426 88.6058 185.344 89.1569C185.339 89.243 185.339 89.3293 185.344 89.4154C185.344 89.4671 185.344 89.4929 185.344 89.3572C185.333 89.2122 185.305 89.069 185.26 88.9308C185.12 88.4727 184.864 88.0587 184.517 87.729C184.208 87.4451 183.845 87.2255 183.451 87.0829C183.104 86.9515 182.736 86.8837 182.365 86.8826C182.009 86.8783 181.655 86.9464 181.325 87.0829C181.213 87.1285 181.105 87.1825 181.002 87.2444L181.247 87.0183L182.029 86.3076L183.574 84.8603C184.594 83.8976 185.622 82.8703 186.591 81.914L191.572 86.6242Z" fill="#FF8B7B"/>
<path opacity="0.2" d="M210.323 81.6426C212.636 83.9298 213.392 88.1037 213.553 91.7219L213.178 92.0127C210.97 89.6512 209.411 86.7571 208.656 83.6132C208.572 83.2772 208.494 82.9671 208.436 82.5988L210.323 81.6426Z" fill="black"/>
<path d="M187.056 78.1795C186.126 83.0899 185.544 93.1758 188.238 113.141H212.571C212.739 109.413 210.394 91.2051 213.992 73.6244C211.304 73.1081 208.584 72.7649 205.851 72.5971C202.408 72.3996 198.957 72.3996 195.514 72.5971C194.377 72.7004 193.252 72.8684 192.283 73.0429C190.994 73.269 189.804 73.8812 188.871 74.7984C187.937 75.7156 187.305 76.8947 187.056 78.1795Z" fill="#E5AC00"/>
<path opacity="0.4" d="M187.056 78.1795C186.126 83.0899 185.544 93.1758 188.238 113.141H212.571C212.739 109.413 210.394 91.2051 213.992 73.6244C211.304 73.1081 208.584 72.7649 205.851 72.5971C202.408 72.3996 198.957 72.3996 195.514 72.5971C194.377 72.7004 193.252 72.8684 192.283 73.0429C190.994 73.269 189.804 73.8812 188.871 74.7984C187.937 75.7156 187.305 76.8947 187.056 78.1795Z" fill="black"/>
<path opacity="0.2" d="M190.778 85.4611L186.384 84.408C186.248 87.0699 186.235 90.3651 186.429 94.4421C188.452 92.1419 191.036 88.5495 190.778 85.4611Z" fill="black"/>
<path opacity="0.2" d="M195.12 218.237L195.352 223.664H199.901L199.668 218.237H195.12Z" fill="black"/>
<path opacity="0.2" d="M229.015 216.854L224.569 217.817L226.87 222.87L231.315 221.907L229.015 216.854Z" fill="black"/>
<path d="M206.711 57.6073C205.548 61.9621 205.083 64.5724 202.395 66.3815C198.357 69.1339 193.317 65.9809 193.188 61.3806C193.046 57.2261 194.977 50.7972 199.649 49.9185C200.675 49.7259 201.734 49.7978 202.725 50.1275C203.716 50.4572 204.607 51.0339 205.313 51.8031C206.02 52.5724 206.519 53.5089 206.764 54.5243C207.008 55.5398 206.99 56.6008 206.711 57.6073Z" fill="#FF8B7B"/>
<path d="M196.515 57.7687C196.295 57.1872 195.294 52.6838 196.237 51.5143C197.181 50.3448 207.938 51.1912 209.528 52.7548C212.17 55.3393 210.335 57.6653 207.447 60.6568C205.276 62.9053 205.192 65.438 204.094 65.8257C202.156 66.4718 199.197 65.8645 198.602 63.8163C198.008 61.7681 196.515 57.7687 196.515 57.7687Z" fill="#263238"/>
<path d="M208.223 47.6312C204.424 46.0159 197.297 47.8056 193.446 46.8752C193.397 48.3071 193.868 49.7084 194.772 50.8201C195.676 51.9317 196.951 52.6787 198.363 52.9229C201.557 53.5316 204.803 53.8324 208.055 53.821C212.28 53.6271 211.453 49.0074 208.223 47.6312Z" fill="#263238"/>
<path d="M208.817 52.8905C210.205 53.027 211.603 52.76 212.842 52.1216C213.553 53.8402 209.644 54.3119 208.817 52.8905Z" fill="#263238"/>
<path d="M198.583 57.9497C198.495 59.0702 198.041 60.1307 197.29 60.9671C196.295 62.059 195.262 61.3741 195.087 60.0496C194.932 58.8478 195.255 56.819 196.47 56.2375C197.685 55.656 198.667 56.5993 198.583 57.9497Z" fill="#FF8B7B"/>
<path d="M196.864 113.16C196.864 113.16 202.033 147.888 204.856 160.901C207.951 175.148 224.582 222.282 224.582 222.282L232.717 220.518C232.717 220.518 221.087 182.1 218.502 162.18C216.499 146.881 212.565 113.147 212.565 113.147L196.864 113.16Z" fill="#E5AC00"/>
<path d="M222.631 219.575C222.599 219.575 224.149 222.521 224.149 222.521L233.298 220.537L232.529 217.785L222.631 219.575Z" fill="#263238"/>
<path opacity="0.3" d="M200.127 125.533C206.091 126.702 205.457 148.942 204.74 160.384C203.021 152.295 200.502 136.737 198.783 125.694C199.199 125.489 199.674 125.432 200.127 125.533Z" fill="black"/>
<path d="M188.238 113.16C188.238 113.16 187.592 147.139 188.109 160.972C188.626 175.387 193.659 222.586 193.659 222.586H201.361C201.361 222.586 201.639 176.227 202.007 162.071C202.382 146.641 204.243 113.134 204.243 113.134L188.238 113.16Z" fill="#E5AC00"/>
<path d="M192.18 219.549C192.141 219.549 192.613 222.741 192.613 222.741H201.975L202.233 219.891L192.18 219.549Z" fill="#263238"/>
<path d="M196.58 79.6913C198.757 85.5644 185.958 92.4843 185.958 92.4843L180.414 85.3771C180.414 85.3771 184.142 77.9984 188.665 74.6774C194.254 70.5811 194.919 75.2202 196.58 79.6913Z" fill="#E5AC00"/>
<path opacity="0.4" d="M196.58 79.6913C198.757 85.5644 185.958 92.4843 185.958 92.4843L180.414 85.3771C180.414 85.3771 184.142 77.9984 188.665 74.6774C194.254 70.5811 194.919 75.2202 196.58 79.6913Z" fill="black"/>
<path d="M246.731 35.1034C259.609 35.1034 270.049 28.4501 270.049 20.2428C270.049 12.0355 259.609 5.3822 246.731 5.3822C233.853 5.3822 223.413 12.0355 223.413 20.2428C223.413 28.4501 233.853 35.1034 246.731 35.1034Z" fill="#E5AC00"/>
<path d="M238.319 27.7248C236.783 27.7198 235.297 27.1737 234.124 26.1823C232.951 25.1909 232.164 23.8177 231.903 22.3039C231.646 20.6643 232.016 18.9879 232.939 17.6087C233.862 16.2294 235.27 15.2483 236.884 14.8607C238.209 14.5555 239.595 14.6732 240.849 15.197C242.103 15.7209 243.162 16.6246 243.875 17.7811L258.846 14.6927C259.421 14.5667 260.023 14.6624 260.53 14.9606C261.038 15.2589 261.415 15.7377 261.585 16.3015C261.663 16.598 261.681 16.9072 261.635 17.2105C261.59 17.5137 261.483 17.8046 261.322 18.0652C261.161 18.3259 260.948 18.5508 260.696 18.7264C260.445 18.902 260.16 19.0244 259.86 19.0863L259.472 19.1638C259.415 19.1741 259.36 19.1976 259.313 19.2323C259.266 19.267 259.228 19.3121 259.201 19.3641C259.177 19.4169 259.165 19.4742 259.165 19.5321C259.165 19.59 259.177 19.6473 259.201 19.7001L259.466 20.385C259.555 20.607 259.563 20.853 259.49 21.0806C259.417 21.3082 259.267 21.5032 259.065 21.632C258.906 21.7301 258.772 21.8632 258.673 22.021C258.573 22.1789 258.511 22.3574 258.49 22.543C258.471 22.756 258.385 22.9575 258.245 23.1188C258.105 23.2801 257.917 23.3929 257.708 23.4411L257.405 23.5057C257.194 23.5446 256.977 23.5155 256.784 23.4225C256.591 23.3296 256.433 23.1777 256.332 22.9888C256.198 22.7634 255.997 22.5855 255.757 22.4799C255.517 22.3743 255.25 22.3462 254.993 22.3995C254.737 22.4529 254.503 22.585 254.325 22.7775C254.147 22.97 254.033 23.2133 254 23.4734C253.982 23.685 253.897 23.8855 253.758 24.0457C253.618 24.206 253.432 24.3178 253.224 24.365L252.921 24.4296C252.71 24.4675 252.493 24.4379 252.301 24.3451C252.108 24.2523 251.95 24.1009 251.848 23.9127C251.751 23.7525 251.621 23.6152 251.466 23.5103C251.311 23.4055 251.135 23.3355 250.95 23.3054C250.702 23.2755 250.473 23.1559 250.306 22.9692C250.14 22.7824 250.047 22.5412 250.046 22.291V21.5544C250.043 21.4968 250.028 21.4404 250.002 21.3892C249.975 21.3379 249.938 21.2929 249.893 21.2573C249.847 21.2217 249.795 21.1964 249.738 21.183C249.682 21.1696 249.624 21.1685 249.567 21.1797L244.793 22.1618C244.598 23.4846 244 24.7153 243.081 25.6864C242.162 26.6575 240.966 27.3219 239.656 27.5891C239.216 27.6791 238.768 27.7246 238.319 27.7248ZM237.026 15.4487C235.561 15.791 234.28 16.6758 233.44 17.925C232.601 19.1743 232.266 20.695 232.504 22.1812C232.758 23.5638 233.498 24.8098 234.591 25.6938C235.684 26.5778 237.058 27.0414 238.463 27.0008C239.868 26.9602 241.212 26.4181 242.252 25.4725C243.292 24.5268 243.96 23.2401 244.134 21.8452V21.6126L249.399 20.5465C249.551 20.51 249.708 20.5075 249.86 20.5393C250.012 20.5712 250.155 20.6365 250.279 20.7305C250.403 20.8245 250.504 20.945 250.575 21.083C250.647 21.221 250.686 21.3733 250.692 21.5286V22.2652C250.693 22.3528 250.725 22.4374 250.781 22.5045C250.838 22.5715 250.916 22.6171 251.002 22.6334C251.284 22.6739 251.554 22.7781 251.79 22.9382C252.026 23.0983 252.223 23.31 252.365 23.5574C252.399 23.6271 252.454 23.6845 252.523 23.7215C252.591 23.7585 252.669 23.7734 252.746 23.7641L253.044 23.6995C253.119 23.6801 253.186 23.637 253.235 23.5765C253.284 23.5159 253.312 23.4413 253.315 23.3635C253.356 22.9613 253.523 22.5825 253.793 22.2817C254.064 21.981 254.422 21.774 254.818 21.6905C255.213 21.6071 255.625 21.6516 255.994 21.8176C256.363 21.9836 256.669 22.2625 256.869 22.6141C256.902 22.6833 256.956 22.7404 257.023 22.7775C257.09 22.8145 257.167 22.8297 257.243 22.8208L257.553 22.7562C257.628 22.7356 257.693 22.692 257.741 22.6316C257.788 22.5711 257.816 22.4971 257.818 22.4202C257.85 22.1365 257.947 21.8639 258.1 21.6232C258.253 21.3824 258.46 21.1799 258.703 21.0311C258.775 20.9797 258.827 20.9061 258.851 20.8218C258.876 20.7375 258.872 20.6475 258.839 20.5659L258.574 19.881C258.519 19.7398 258.496 19.5884 258.506 19.4372C258.516 19.2861 258.559 19.1389 258.631 19.006C258.704 18.8731 258.805 18.7577 258.926 18.6677C259.048 18.5778 259.188 18.5156 259.337 18.4854L259.731 18.4014C259.944 18.3559 260.146 18.2679 260.325 18.1426C260.503 18.0172 260.654 17.8572 260.77 17.672C260.885 17.4868 260.961 17.2803 260.995 17.0648C261.029 16.8493 261.018 16.6293 260.965 16.4178C260.839 16.0112 260.564 15.6673 260.194 15.4552C259.825 15.2431 259.39 15.1784 258.975 15.2742L243.584 18.4725L243.468 18.2722C242.85 17.1714 241.89 16.3018 240.734 15.7947C239.577 15.2876 238.287 15.1707 237.059 15.4616L237.026 15.4487ZM238.319 25.3213C237.516 25.3302 236.728 25.1057 236.051 24.6752C235.25 24.1491 234.656 23.3615 234.37 22.4466C234.085 21.5317 234.125 20.546 234.485 19.6577C234.845 18.7694 235.502 18.0335 236.344 17.5753C237.186 17.1171 238.16 16.9651 239.102 17.1452C240.043 17.3252 240.893 17.8262 241.506 18.5627C242.12 19.2992 242.459 20.2256 242.465 21.1841C242.472 22.1425 242.146 23.0735 241.543 23.8186C240.94 24.5636 240.097 25.0764 239.159 25.2696C238.884 25.3193 238.604 25.341 238.325 25.3342L238.319 25.3213ZM238.319 17.6907C238.078 17.692 237.838 17.7158 237.601 17.7617C237.151 17.8576 236.724 18.0412 236.345 18.3021C235.966 18.5629 235.642 18.8959 235.392 19.2819C235.141 19.668 234.969 20.0997 234.885 20.5522C234.802 21.0048 234.808 21.4694 234.904 21.9195C235 22.3696 235.183 22.7964 235.444 23.1756C235.705 23.5548 236.038 23.8788 236.424 24.1293C236.81 24.3798 237.242 24.5518 237.694 24.6355C238.147 24.7192 238.612 24.7129 239.062 24.617C239.737 24.4763 240.356 24.1388 240.841 23.6468C241.325 23.1549 241.652 22.5307 241.782 21.8528C241.912 21.1749 241.838 20.4738 241.57 19.8377C241.302 19.2016 240.852 18.6592 240.276 18.2786C239.704 17.8982 239.031 17.6979 238.344 17.7036L238.319 17.6907Z" fill="white"/>
<path opacity="0.6" d="M227.755 43.8195C231.987 43.8195 235.418 41.6326 235.418 38.9349C235.418 36.2372 231.987 34.0503 227.755 34.0503C223.523 34.0503 220.092 36.2372 220.092 38.9349C220.092 41.6326 223.523 43.8195 227.755 43.8195Z" fill="#E5AC00"/>
<path opacity="0.3" d="M215.563 45.8223C217.3 45.8223 218.709 44.9256 218.709 43.8194C218.709 42.7132 217.3 41.8164 215.563 41.8164C213.825 41.8164 212.416 42.7132 212.416 43.8194C212.416 44.9256 213.825 45.8223 215.563 45.8223Z" fill="#E5AC00"/>
</g>
<defs>
<clipPath id="clip0_147_4427">
<rect width="323.056" height="241" fill="white"/>
</clipPath>
</defs>
</svg>
