<svg width="324" height="241" viewBox="0 0 324 241" fill="none" xmlns="http://www.w3.org/2000/svg">
<g clip-path="url(#clip0_147_4602)">
<path d="M323.056 211.537H0V211.699H323.056V211.537Z" fill="#E6E6E6"/>
<path d="M80.6478 221.313H59.2485V221.475H80.6478V221.313Z" fill="#E6E6E6"/>
<path d="M52.4773 221.313H40.0784V221.475H52.4773V221.313Z" fill="#E6E6E6"/>
<path d="M136.039 223.691H123.64V223.852H136.039V223.691Z" fill="#E6E6E6"/>
<path d="M200.689 227.296H172.783V227.457H200.689V227.296Z" fill="#E6E6E6"/>
<path d="M167.033 227.296H162.943V227.457H167.033V227.296Z" fill="#E6E6E6"/>
<path d="M292.915 223.691H232.387V223.852H292.915V223.691Z" fill="#E6E6E6"/>
<path d="M153.129 182.721H28.3708C27.3935 182.719 26.4568 182.329 25.7663 181.638C25.0758 180.946 24.688 180.009 24.688 179.031V3.657C24.6965 2.68526 25.0881 1.75612 25.7776 1.0714C26.4672 0.386671 27.3991 0.00166464 28.3708 0H153.129C154.107 0 155.046 0.388693 155.737 1.08057C156.429 1.77245 156.818 2.71084 156.818 3.6893V179.031C156.818 180.01 156.429 180.948 155.737 181.64C155.046 182.332 154.107 182.721 153.129 182.721ZM28.3708 0.129223C27.4363 0.130935 26.5407 0.503364 25.8805 1.16476C25.2203 1.82617 24.8495 2.72249 24.8495 3.657V179.031C24.8495 179.966 25.2203 180.862 25.8805 181.524C26.5407 182.185 27.4363 182.557 28.3708 182.559H153.129C154.064 182.557 154.96 182.185 155.621 181.524C156.283 180.863 156.655 179.966 156.656 179.031V3.657C156.655 2.7219 156.283 1.82559 155.621 1.16437C154.96 0.503154 154.064 0.130931 153.129 0.129223H28.3708Z" fill="#E6E6E6"/>
<path d="M292.889 182.721H168.125C167.147 182.719 166.21 182.33 165.518 181.638C164.827 180.947 164.437 180.009 164.436 179.031V3.657C164.446 2.68467 164.839 1.75554 165.529 1.07099C166.22 0.386446 167.153 0.00164648 168.125 0H292.889C293.86 0.00336269 294.79 0.389121 295.478 1.07366C296.167 1.75821 296.557 2.68638 296.566 3.657V179.031C296.566 180.008 296.179 180.944 295.49 181.636C294.801 182.327 293.866 182.717 292.889 182.721ZM168.125 0.129223C167.19 0.130931 166.294 0.503154 165.632 1.16437C164.971 1.82559 164.599 2.7219 164.597 3.657V179.031C164.599 179.966 164.971 180.863 165.632 181.524C166.294 182.185 167.19 182.557 168.125 182.559H292.889C293.824 182.557 294.721 182.185 295.382 181.524C296.043 180.863 296.415 179.966 296.417 179.031V3.657C296.415 2.7219 296.043 1.82559 295.382 1.16437C294.721 0.503154 293.824 0.130931 292.889 0.129223H168.125Z" fill="#E6E6E6"/>
<path d="M172.771 156.346H158.562V212.707H172.771V156.346Z" fill="#E0E0E0"/>
<path d="M170.07 212.707H172.771V205.031H167.24L170.07 212.707Z" fill="#FAFAFA"/>
<path d="M110.511 156.346H96.3031V212.707H110.511V156.346Z" fill="#E0E0E0"/>
<path d="M172.771 156.346H108.159V207.997H172.771V156.346Z" fill="#FAFAFA"/>
<path d="M170.425 158.886V172.551H110.485V158.886H170.406M170.658 158.634H110.253V172.796H170.677V158.634H170.658Z" fill="#E0E0E0"/>
<path d="M110.854 212.707H108.159V205.031H113.684L110.854 212.707Z" fill="#FAFAFA"/>
<path d="M139.037 165.715C139.037 165.997 139.121 166.274 139.278 166.508C139.435 166.743 139.658 166.926 139.918 167.034C140.179 167.142 140.466 167.171 140.743 167.115C141.02 167.06 141.275 166.924 141.475 166.725C141.674 166.525 141.81 166.271 141.865 165.994C141.92 165.717 141.892 165.43 141.784 165.169C141.676 164.908 141.493 164.685 141.258 164.528C141.023 164.371 140.747 164.287 140.465 164.287C140.086 164.287 139.723 164.438 139.455 164.705C139.187 164.973 139.037 165.336 139.037 165.715Z" fill="#E6E6E6"/>
<path d="M170.425 175.336V189.001H110.485V175.336H170.406M170.658 175.09H110.253V189.253H170.677V175.097L170.658 175.09Z" fill="#E0E0E0"/>
<path d="M139.037 182.204C139.037 182.486 139.121 182.762 139.278 182.997C139.435 183.232 139.658 183.415 139.918 183.523C140.179 183.631 140.466 183.659 140.743 183.604C141.02 183.549 141.275 183.413 141.475 183.213C141.674 183.014 141.81 182.759 141.865 182.482C141.92 182.205 141.892 181.918 141.784 181.657C141.676 181.396 141.493 181.173 141.258 181.017C141.023 180.86 140.747 180.776 140.465 180.776C140.086 180.776 139.723 180.926 139.455 181.194C139.187 181.462 139.037 181.825 139.037 182.204Z" fill="#E6E6E6"/>
<path d="M170.425 191.792V205.464H110.485V191.792H170.406M170.658 191.54H110.253V205.709H170.677V191.54H170.658Z" fill="#E0E0E0"/>
<path d="M139.037 198.628C139.038 198.91 139.123 199.186 139.281 199.42C139.438 199.653 139.662 199.835 139.923 199.943C140.184 200.05 140.471 200.077 140.747 200.021C141.024 199.965 141.278 199.829 141.477 199.629C141.676 199.429 141.811 199.175 141.866 198.898C141.92 198.621 141.892 198.334 141.783 198.074C141.675 197.813 141.492 197.59 141.258 197.434C141.023 197.277 140.747 197.194 140.465 197.194C140.277 197.194 140.091 197.231 139.917 197.303C139.743 197.375 139.586 197.481 139.453 197.614C139.32 197.747 139.215 197.906 139.144 198.08C139.072 198.254 139.036 198.44 139.037 198.628Z" fill="#E6E6E6"/>
<path d="M101.834 123.614H87.6258V212.713H101.834V123.614Z" fill="#E0E0E0"/>
<path d="M99.1331 212.707H101.834V205.031H96.3096L99.1331 212.707Z" fill="#FAFAFA"/>
<path d="M48.7363 123.614H34.5283V212.713H48.7363V123.614Z" fill="#E0E0E0"/>
<path d="M101.834 123.614H46.378V208.003H101.834V123.614Z" fill="#FAFAFA"/>
<path d="M99.4432 125.992V145.097H48.7686V125.992H99.4432ZM99.7404 125.701H48.4584V145.375H99.7275V125.708L99.7404 125.701Z" fill="#E0E0E0"/>
<path d="M99.4432 147.43V198.105H75.3044V147.43H99.4432ZM99.7404 147.133H75.0137V198.402H99.7404V147.133Z" fill="#E0E0E0"/>
<path d="M72.9073 147.43V198.105H48.7686V147.43H72.9073ZM73.1981 147.133H48.4584V198.402H73.1852V147.133H73.1981Z" fill="#E0E0E0"/>
<path d="M49.0787 212.707H46.378V205.031H51.9087L49.0787 212.707Z" fill="#FAFAFA"/>
<path d="M72.6748 135.554C72.6735 135.838 72.7565 136.116 72.9133 136.353C73.0702 136.59 73.2937 136.775 73.5557 136.884C73.8177 136.994 74.1063 137.023 74.385 136.968C74.6636 136.914 74.9198 136.778 75.1211 136.577C75.3223 136.377 75.4596 136.121 75.5154 135.843C75.5713 135.565 75.5433 135.276 75.4349 135.013C75.3265 134.751 75.1427 134.527 74.9067 134.369C74.6707 134.211 74.3931 134.126 74.1091 134.126C73.7298 134.126 73.366 134.277 73.0972 134.544C72.8283 134.812 72.6765 135.175 72.6748 135.554Z" fill="#E6E6E6"/>
<path d="M77.7919 171.562C77.7919 171.846 77.8762 172.124 78.0341 172.36C78.192 172.596 78.4164 172.78 78.6789 172.888C78.9414 172.996 79.2301 173.024 79.5085 172.969C79.7869 172.913 80.0425 172.776 80.2429 172.574C80.4432 172.373 80.5793 172.117 80.6339 171.838C80.6885 171.56 80.6592 171.271 80.5496 171.009C80.4401 170.747 80.2552 170.523 80.0185 170.367C79.7818 170.21 79.5038 170.127 79.2199 170.128C79.0318 170.128 78.8456 170.165 78.6719 170.237C78.4983 170.309 78.3406 170.415 78.2079 170.548C78.0752 170.682 77.9702 170.84 77.8988 171.014C77.8274 171.188 77.7911 171.374 77.7919 171.562Z" fill="#E6E6E6"/>
<path d="M67.564 171.562C67.5653 171.844 67.6501 172.12 67.8078 172.354C67.9654 172.588 68.1889 172.77 68.4499 172.877C68.7109 172.984 68.9978 173.011 69.2744 172.956C69.551 172.9 69.8048 172.763 70.0038 172.563C70.2029 172.363 70.3382 172.109 70.3928 171.832C70.4474 171.555 70.4187 171.268 70.3105 171.008C70.2022 170.747 70.0192 170.525 69.7845 170.368C69.5498 170.212 69.274 170.128 68.9919 170.128C68.8038 170.128 68.6176 170.165 68.444 170.237C68.2703 170.309 68.1126 170.415 67.9799 170.548C67.8472 170.682 67.7422 170.84 67.6708 171.014C67.5994 171.188 67.5631 171.374 67.564 171.562Z" fill="#E6E6E6"/>
<path d="M65.9487 98.7712H59.9592C60.5112 101.677 60.8588 104.617 60.9995 107.571C60.9995 110.802 56.4379 123.614 62.9378 123.614C69.4377 123.614 64.8761 110.834 64.8761 107.571C65.0275 104.616 65.3859 101.676 65.9487 98.7712Z" fill="#E0E0E0"/>
<path d="M43.1603 111.875V115.751C43.1672 117.829 43.9957 119.821 45.4653 121.29C46.9348 122.76 48.9259 123.588 51.0041 123.595H54.8808C56.959 123.588 58.9502 122.76 60.4197 121.29C61.8892 119.821 62.7178 117.829 62.7246 115.751V111.875H43.1603Z" fill="#F5F5F5"/>
<path d="M126.425 148.128C126.425 152.65 131.484 156.346 137.667 156.346H143.25C149.433 156.346 154.492 152.65 154.492 148.128H126.425Z" fill="#E0E0E0"/>
<path d="M274.346 141.499C270.96 144.264 266.282 149.323 262.005 156.443C259.149 161.186 257.431 166.135 256.675 172.712C256.675 165.282 256.72 157.303 256.746 149.769C257.605 147.831 259.569 143.36 260.978 139.832C265.675 128.053 267.439 125.152 271.658 114.995C277.299 101.427 283.075 85.3645 281.421 86.6502C278.048 89.267 265.126 113.464 263.73 116.927C259.926 126.169 257.574 135.944 256.759 145.905C256.759 138.798 256.81 132.337 256.836 127.323C256.927 110.97 257.204 105.691 257.34 104.063C257.864 103.236 258.477 102.273 258.839 101.756C261.876 97.3628 263.045 93.6283 265.901 87.0767C269.959 77.805 273.448 61.3355 272.427 62.1626C268.175 65.6257 264.829 73.056 260.422 82.5345C256.016 92.013 257.276 97.4597 256.403 105.549C256.222 107.138 256.08 113.134 255.977 121.437C254.84 112.585 252.695 106.757 248.786 101.459C243.979 94.9399 239.327 90.5398 235.915 88.2397C232.504 85.9395 241.808 101.95 246.253 108.915C250.214 115.144 253.864 120.629 255.945 126.037C255.835 137.299 255.783 151.552 255.783 164.804C254.762 158.769 253.095 152.263 250.873 147.23C248.198 141.182 244.088 131.904 240.813 128.757C240.031 128.001 244.237 146.047 246.938 150.842C249.639 155.636 251.622 160.165 253.321 162.885C253.715 163.531 255.034 165.967 255.783 167.376C255.783 183.574 255.873 197.866 256.016 202.731H256.713C256.668 201.477 256.655 193.233 256.675 182.327C258.361 176.408 262.212 169.65 265.391 163.486C268.854 156.812 277.731 138.753 274.346 141.499Z" fill="#E0E0E0"/>
<path d="M266.483 212.707H246.234L244.702 192.858H268.014L266.483 212.707Z" fill="#F0F0F0"/>
<path d="M269.519 195.171H243.19L242.441 188.471H270.275L269.519 195.171Z" fill="#F5F5F5"/>
<path d="M80.286 13.2454H44.0714V53.0136H80.286V13.2454Z" fill="#E0E0E0"/>
<path d="M84.2078 13.2454H46.7979V53.0136H84.2078V13.2454Z" fill="#F5F5F5"/>
<path d="M81.0742 49.8798V16.3789L49.9316 16.3789V49.8798H81.0742Z" fill="white"/>
<path d="M73.5212 41.7518V24.4941H57.4782V41.7518H73.5212Z" fill="#F5F5F5"/>
<path d="M264.938 17.8779H231.295V54.8227H264.938V17.8779Z" fill="#E0E0E0"/>
<path d="M268.583 17.8779H233.835V54.8227H268.583V17.8779Z" fill="#F5F5F5"/>
<path d="M265.675 51.9087V20.7919H236.749V51.9087H265.675Z" fill="white"/>
<path d="M251.209 45.3766C256.194 45.3766 260.235 41.3354 260.235 36.3504C260.235 31.3654 256.194 27.3242 251.209 27.3242C246.224 27.3242 242.182 31.3654 242.182 36.3504C242.182 41.3354 246.224 45.3766 251.209 45.3766Z" fill="#F5F5F5"/>
<path d="M117.909 36.9575H91.0437V66.459H117.909V36.9575Z" fill="#E0E0E0"/>
<path d="M120.817 36.9575H93.066V66.459H120.817V36.9575Z" fill="#F5F5F5"/>
<path d="M118.491 64.1332V39.2837H95.3921V64.1332H118.491Z" fill="white"/>
<path d="M106.945 45.4216L100.626 56.3668H113.264L106.945 45.4216Z" fill="#F5F5F5"/>
<path d="M161.528 240.716C230.715 240.716 286.803 237.441 286.803 233.402C286.803 229.362 230.715 226.088 161.528 226.088C92.3408 226.088 36.2534 229.362 36.2534 233.402C36.2534 237.441 92.3408 240.716 161.528 240.716Z" fill="#F5F5F5"/>
<path d="M225.655 70.0578L219.245 67.4734C219.245 67.4734 210.788 82.8961 208.365 83.6779C205.07 84.7375 198.247 87.6838 194.202 88.2007C193.653 88.8468 192.755 90.8562 192.839 91.5863C198.273 93.4019 210.213 90.9919 212.771 89.0923C218.593 84.7827 225.655 70.0578 225.655 70.0578Z" fill="#E58A7B"/>
<path d="M227.625 66.5496C228.821 70.9625 222.347 79.8401 222.347 79.8401L213.863 75.0847C213.863 75.0847 215.453 71.4342 217.391 67.719C220.499 61.7166 226.262 61.5163 227.625 66.5496Z" fill="#E5AC00"/>
<path opacity="0.2" d="M227.625 66.5496C228.821 70.9625 222.347 79.8401 222.347 79.8401L213.863 75.0847C213.863 75.0847 215.453 71.4342 217.391 67.719C220.499 61.7166 226.262 61.5163 227.625 66.5496Z" fill="black"/>
<path opacity="0.2" d="M217.23 76.9843L220.57 78.8581L221.158 68.6042C219.213 70.0968 217.843 74.5937 217.23 76.9843Z" fill="black"/>
<path d="M222.043 63.2284C222.043 63.2284 215.44 77.921 219.291 105.277H245.31C245.723 101.284 244.353 81.7977 249.309 62.9829C246.455 62.4251 243.567 62.056 240.664 61.878C236.982 61.6647 233.291 61.6647 229.609 61.878C227.057 62.1372 224.527 62.5886 222.043 63.2284Z" fill="#E5AC00"/>
<path opacity="0.2" d="M222.043 63.2284C222.043 63.2284 215.44 77.921 219.291 105.277H245.31C245.723 101.284 244.353 81.7977 249.309 62.9829C246.455 62.4251 243.567 62.056 240.664 61.878C236.982 61.6647 233.291 61.6647 229.609 61.878C227.057 62.1372 224.527 62.5886 222.043 63.2284Z" fill="black"/>
<g style="mix-blend-mode:multiply">
<path d="M216.008 233.983C215.97 234.681 225.836 235.243 238.041 235.243C250.246 235.243 260.183 234.681 260.222 233.983C260.261 233.286 250.401 232.73 238.189 232.73C225.978 232.73 216.054 233.292 216.008 233.983Z" fill="#E8ECF1"/>
</g>
<path d="M233.376 215.648L228.761 217.435L232.737 227.704L237.351 225.917L233.376 215.648Z" fill="#E58A7B"/>
<path d="M253.955 229.015H249.089L247.306 217.753H252.171L253.955 229.015Z" fill="#E58A7B"/>
<path d="M248.753 228.452H254.219C254.314 228.453 254.406 228.487 254.478 228.548C254.55 228.61 254.598 228.695 254.614 228.788L255.318 233.111C255.333 233.219 255.324 233.33 255.292 233.434C255.261 233.539 255.207 233.636 255.135 233.718C255.062 233.8 254.973 233.866 254.873 233.91C254.773 233.955 254.665 233.978 254.555 233.977C252.649 233.944 251.732 233.828 249.328 233.828C247.849 233.828 244.806 233.983 242.751 233.983C240.696 233.983 240.561 231.967 241.407 231.78C245.206 230.959 246.679 229.842 247.946 228.756C248.169 228.56 248.456 228.452 248.753 228.452Z" fill="#263238"/>
<path d="M232.601 226.785L237.769 225.274C237.862 225.248 237.96 225.254 238.048 225.292C238.136 225.329 238.209 225.396 238.254 225.48L240.192 229.357C240.237 229.455 240.26 229.562 240.26 229.671C240.259 229.779 240.235 229.885 240.189 229.983C240.143 230.081 240.076 230.168 239.993 230.237C239.91 230.306 239.812 230.357 239.708 230.384C237.828 230.901 236.568 231.218 234.216 231.903C232.594 232.374 230.94 233.143 229.338 233.654C228.226 234.009 225.616 234.022 224.266 234.022C222.269 234.022 221.823 231.916 222.683 231.819C224.847 231.58 225.138 231.689 226.333 231.089C228.289 230.234 230.062 229.01 231.554 227.483C231.835 227.163 232.196 226.922 232.601 226.785Z" fill="#263238"/>
<path d="M195.016 88.1749L189.666 85.9329L187.463 91.8642C189.656 92.1982 191.887 92.1982 194.079 91.8642L195.016 88.1749Z" fill="#E58A7B"/>
<path d="M185.686 85.7778L185.544 89.7191L187.463 91.8513L189.666 85.92L185.686 85.7778Z" fill="#E58A7B"/>
<path d="M234.009 216.52L229.38 218.307L231.43 223.618L236.059 221.83L234.009 216.52Z" fill="#CF6F64"/>
<path d="M252.171 217.753H247.306L248.23 223.561H253.095L252.171 217.753Z" fill="#CF6F64"/>
<path opacity="0.2" d="M218.464 97.8795C218.561 99.049 218.67 100.244 218.813 101.472L238.157 95.1917C241.178 94.2963 243.804 92.3979 245.6 89.8096C245.678 88.0844 245.775 86.2689 245.923 84.3758C245.988 83.4583 246.066 82.5149 246.15 81.5587C246.234 80.6025 246.35 79.5428 246.473 78.522L218.464 97.8795Z" fill="black"/>
<path d="M224.783 76.6871L224.136 76.6096C224.518 73.379 226.928 70.8333 229.467 70.8979V71.544C227.244 71.4988 225.125 73.7925 224.783 76.6871Z" fill="white"/>
<path d="M228.226 82.6506H228.117V82.0045C230.339 82.0885 232.426 79.769 232.769 76.8809L233.415 76.9584C233.072 80.1179 230.74 82.6506 228.226 82.6506Z" fill="white"/>
<path d="M240.302 49.4275C239.391 52.9876 238.319 59.5068 240.664 61.8781C240.664 61.8781 239.023 65.4898 232.413 65.4898C226.372 65.4898 229.609 61.8781 229.609 61.8781C233.628 60.9348 233.699 58.0014 233.169 55.2231L240.302 49.4275Z" fill="#E58A7B"/>
<path d="M237.395 51.7922L233.176 55.2231C233.306 55.8615 233.382 56.51 233.402 57.1614C234.636 58.389 237.11 55.2812 237.362 53.6918C237.49 53.0661 237.501 52.422 237.395 51.7922Z" fill="#CF6F64"/>
<path d="M225.92 49.3822C226.213 49.891 226.609 50.3338 227.081 50.6829C227.554 51.032 228.093 51.2799 228.666 51.411C230.216 51.7534 230.992 50.3255 230.565 48.8912C230.184 47.5989 228.911 45.8609 227.335 46.1581C226.997 46.2277 226.681 46.3771 226.413 46.594C226.145 46.8108 225.933 47.0888 225.794 47.4045C225.656 47.7202 225.595 48.0645 225.616 48.4086C225.638 48.7527 225.742 49.0866 225.92 49.3822Z" fill="#CF6F64"/>
<path d="M228.485 37.9914C226.068 39.0962 225.215 48.6975 228.252 50.1189C231.289 51.5403 233.059 35.8915 228.485 37.9914Z" fill="#263238"/>
<path d="M241.039 44.0714C240.457 48.8914 240.393 51.7278 237.808 54.1959C237.007 55.015 235.996 55.5968 234.885 55.8771C233.774 56.1574 232.608 56.1254 231.514 55.7844C230.421 55.4435 229.442 54.807 228.688 53.9452C227.933 53.0834 227.431 52.0298 227.238 50.9008C226.456 46.5718 227.535 39.4193 232.368 37.5004C233.383 37.0525 234.5 36.8844 235.602 37.0134C236.705 37.1424 237.752 37.564 238.637 38.2343C239.522 38.9046 240.211 39.7993 240.633 40.8257C241.055 41.852 241.195 42.9726 241.039 44.0714Z" fill="#E58A7B"/>
<path d="M233.098 40.4854C236.678 39.5743 239.307 38.9541 238.364 41.9326C237.117 45.9127 235.618 49.7635 237.627 49.938C238.855 50.0478 244.282 47.7477 243.591 45.4152C242.99 43.3864 245.529 42.8307 245.982 41.8034C247.655 38.0818 242.867 38.5729 243.72 36.3115C244.573 34.0501 239.843 30.406 237.259 32.2216C233.053 35.1549 225.836 35.1097 229.628 30.2832C232.349 26.8395 227.496 27.5437 227.496 27.5437C227.496 27.5437 230.43 29.2818 225.493 31.9696C220.273 34.8383 225.06 42.5465 233.098 40.4854Z" fill="#263238"/>
<path d="M242.938 49.3822C242.232 50.4047 241.17 51.1278 239.96 51.411C238.364 51.7534 237.75 50.3255 238.351 48.8912C238.887 47.5989 240.36 45.8609 241.885 46.1581C243.41 46.4553 243.759 48.1158 242.938 49.3822Z" fill="#E58A7B"/>
<path d="M219.291 105.278C219.291 105.278 214.923 144.367 214.58 159.202C214.232 174.631 229.383 222.773 229.383 222.773L237.136 219.543C237.136 219.543 228.091 175.555 229.383 160.404C230.753 143.883 236.413 105.303 236.413 105.303L219.291 105.278Z" fill="#E5AC00"/>
<path opacity="0.2" d="M230.145 116.01C226.663 123.233 229.008 137.519 230.895 145.983C231.612 140.006 232.465 133.519 233.273 127.517C233.195 118.29 232.478 111.164 230.145 116.01Z" fill="black"/>
<path d="M236.794 216.984C236.833 216.984 237.711 219.452 237.711 219.452L228.769 223.212L227.361 220.589L236.794 216.984Z" fill="#E5AC00"/>
<path d="M228.524 105.278C228.524 105.278 231.864 142.455 234.074 156.379C236.503 171.633 246.027 222.437 246.027 222.437H254.937C254.937 222.437 249.6 172.867 248.592 157.761C247.493 141.376 245.31 105.278 245.31 105.278H228.524Z" fill="#E5AC00"/>
<path d="M255.072 220.118C255.111 220.118 255.37 222.605 255.37 222.605H245.575L244.877 219.749L255.072 220.118Z" fill="#E5AC00"/>
<path opacity="0.2" d="M251.661 217.171C251.641 217.172 251.621 217.164 251.606 217.151C251.59 217.138 251.58 217.12 251.577 217.1C251.525 216.648 246.712 171.872 245.807 158.304C244.825 143.586 242.848 110.937 242.829 110.608C242.828 110.597 242.829 110.586 242.832 110.576C242.836 110.566 242.842 110.557 242.849 110.549C242.856 110.541 242.865 110.535 242.875 110.53C242.885 110.526 242.895 110.524 242.906 110.524C242.927 110.524 242.948 110.532 242.963 110.546C242.979 110.561 242.988 110.58 242.99 110.601C242.99 110.931 244.987 143.553 245.969 158.297C246.873 171.866 251.687 216.609 251.732 217.094C251.734 217.104 251.733 217.115 251.731 217.126C251.728 217.136 251.723 217.146 251.717 217.155C251.71 217.163 251.701 217.17 251.692 217.175C251.682 217.18 251.672 217.183 251.661 217.184V217.171Z" fill="black"/>
<path d="M233.647 45.4153C233.647 45.8094 233.402 46.126 233.143 46.126C232.885 46.126 232.697 45.8094 232.723 45.4153C232.749 45.0212 232.969 44.7046 233.227 44.7046C233.486 44.7046 233.673 45.0276 233.647 45.4153Z" fill="#263238"/>
<path d="M229.215 45.4153C229.215 45.8094 228.963 46.126 228.711 46.126C228.459 46.126 228.265 45.8094 228.285 45.4153C228.304 45.0212 228.537 44.7046 228.795 44.7046C229.053 44.7046 229.241 45.0276 229.215 45.4153Z" fill="#263238"/>
<path d="M230.611 45.6155C230.071 46.819 229.376 47.9464 228.543 48.9688C229.189 49.6149 230.397 49.3177 230.397 49.3177L230.611 45.6155Z" fill="#DF5753"/>
<path d="M230.727 50.9654C230.712 50.9654 230.697 50.9624 230.683 50.9565C230.67 50.9505 230.657 50.9419 230.647 50.931C230.637 50.9201 230.629 50.9072 230.623 50.8931C230.618 50.879 230.616 50.864 230.617 50.8491C230.619 50.8177 230.632 50.7881 230.655 50.7664C230.678 50.7448 230.708 50.7328 230.74 50.7328C231.234 50.7362 231.723 50.6289 232.17 50.4187C232.617 50.2085 233.012 49.9007 233.324 49.5181C233.347 49.4986 233.375 49.4878 233.405 49.4878C233.435 49.4878 233.463 49.4986 233.486 49.5181C233.507 49.5398 233.518 49.5687 233.518 49.5989C233.518 49.629 233.507 49.6579 233.486 49.6796C233.151 50.0863 232.73 50.4129 232.252 50.6354C231.775 50.8579 231.254 50.9706 230.727 50.9654Z" fill="#263238"/>
<path d="M234.435 44.2263C234.404 44.2422 234.37 44.2504 234.335 44.2504C234.301 44.2504 234.266 44.2422 234.235 44.2263C233.993 44.07 233.718 43.9728 233.432 43.9425C233.146 43.9122 232.857 43.9497 232.588 44.0518C232.561 44.065 232.533 44.0727 232.504 44.0746C232.474 44.0765 232.445 44.0725 232.417 44.0628C232.389 44.0532 232.364 44.0381 232.342 44.0185C232.32 43.9988 232.303 43.975 232.29 43.9485C232.266 43.891 232.266 43.8264 232.289 43.7684C232.312 43.7105 232.356 43.6638 232.413 43.6383C232.751 43.5004 233.117 43.4459 233.48 43.4797C233.844 43.5134 234.193 43.6343 234.5 43.8322C234.525 43.849 234.546 43.8706 234.562 43.8957C234.579 43.9208 234.59 43.9488 234.595 43.9783C234.601 44.0078 234.6 44.038 234.594 44.0673C234.588 44.0965 234.575 44.1242 234.558 44.1488C234.526 44.1858 234.483 44.2127 234.435 44.2263Z" fill="#263238"/>
<path d="M227.503 42.9341C227.468 42.9258 227.437 42.9078 227.412 42.8824C227.391 42.8614 227.374 42.8362 227.362 42.8085C227.35 42.7807 227.344 42.751 227.344 42.7209C227.344 42.6908 227.35 42.661 227.362 42.6333C227.374 42.6055 227.391 42.5804 227.412 42.5594C227.66 42.2816 227.968 42.0648 228.314 41.9258C228.659 41.7869 229.031 41.7295 229.402 41.7582C229.432 41.7628 229.461 41.7734 229.486 41.7894C229.511 41.8055 229.533 41.8266 229.55 41.8514C229.567 41.8762 229.579 41.9043 229.585 41.9338C229.59 41.9633 229.59 41.9937 229.583 42.0231C229.569 42.0829 229.534 42.1356 229.484 42.1713C229.434 42.207 229.373 42.2232 229.312 42.2169C229.018 42.1984 228.724 42.247 228.452 42.3589C228.18 42.4709 227.937 42.6433 227.742 42.863C227.712 42.8957 227.674 42.9197 227.632 42.9322C227.59 42.9447 227.545 42.9454 227.503 42.9341Z" fill="#263238"/>
<path d="M251.81 69.3408L245.09 67.551C245.09 67.551 238.5 83.7749 236.167 84.8281C233.001 86.2754 224.983 91.2892 221.571 93.6604C221.384 94.4681 221.533 96.6067 221.959 97.1947C227.774 96.135 238.907 91.8513 241.233 89.6739C246.537 84.7053 251.81 69.3408 251.81 69.3408Z" fill="#E58A7B"/>
<path d="M247.119 229.305C246.791 229.331 246.464 229.242 246.195 229.053C246.112 228.978 246.049 228.883 246.014 228.776C245.979 228.67 245.972 228.556 245.994 228.446C245.999 228.377 246.021 228.311 246.06 228.254C246.098 228.197 246.152 228.152 246.214 228.123C246.757 227.845 248.275 228.808 248.45 228.918C248.469 228.929 248.484 228.947 248.492 228.968C248.5 228.989 248.501 229.012 248.495 229.034C248.489 229.056 248.478 229.077 248.462 229.094C248.446 229.111 248.427 229.124 248.404 229.131C247.983 229.234 247.552 229.293 247.119 229.305ZM246.473 228.297C246.424 228.286 246.373 228.286 246.324 228.297C246.299 228.31 246.279 228.329 246.265 228.354C246.251 228.378 246.245 228.405 246.246 228.433C246.229 228.508 246.232 228.587 246.255 228.66C246.277 228.734 246.319 228.8 246.376 228.853C246.628 229.079 247.261 229.105 248.094 228.943C247.598 228.617 247.039 228.397 246.453 228.297H246.473Z" fill="#E5AC00"/>
<path d="M248.372 229.131C248.355 229.136 248.337 229.136 248.32 229.131C247.836 228.86 246.925 227.793 247.061 227.251C247.081 227.165 247.129 227.088 247.199 227.033C247.268 226.978 247.353 226.948 247.442 226.947C247.528 226.935 247.617 226.943 247.7 226.968C247.784 226.994 247.861 227.037 247.926 227.096C248.463 227.554 248.495 228.963 248.495 229.034C248.498 229.055 248.494 229.077 248.484 229.096C248.473 229.114 248.457 229.129 248.437 229.137C248.415 229.142 248.393 229.139 248.372 229.131ZM247.506 227.16H247.461C247.313 227.16 247.293 227.244 247.287 227.277C247.209 227.593 247.784 228.401 248.262 228.782C248.26 228.236 248.091 227.704 247.778 227.257C247.703 227.192 247.606 227.157 247.506 227.16Z" fill="#E5AC00"/>
<path d="M229.964 228.498C229.569 228.636 229.139 228.636 228.743 228.498C228.653 228.449 228.577 228.379 228.522 228.293C228.467 228.207 228.434 228.109 228.427 228.007C228.418 227.943 228.427 227.878 228.45 227.818C228.474 227.758 228.513 227.705 228.562 227.664C229.079 227.199 231.192 227.664 231.431 227.755C231.454 227.761 231.474 227.774 231.488 227.793C231.502 227.812 231.509 227.835 231.509 227.858C231.51 227.882 231.503 227.906 231.491 227.927C231.478 227.948 231.46 227.964 231.438 227.974C230.962 228.189 230.469 228.364 229.964 228.498ZM228.911 227.729C228.837 227.744 228.768 227.777 228.711 227.826C228.69 227.841 228.675 227.862 228.665 227.886C228.656 227.91 228.654 227.936 228.659 227.961C228.663 228.029 228.685 228.095 228.721 228.153C228.757 228.21 228.807 228.258 228.866 228.291C229.208 228.472 230.003 228.33 231.03 227.897C230.339 227.722 229.622 227.666 228.911 227.729Z" fill="#E5AC00"/>
<path d="M231.418 227.974H231.367C230.72 227.858 229.428 227.115 229.389 226.559C229.389 226.43 229.448 226.249 229.758 226.146C229.862 226.109 229.974 226.093 230.085 226.099C230.196 226.106 230.304 226.135 230.404 226.185C231.102 226.527 231.47 227.768 231.489 227.826C231.494 227.845 231.493 227.866 231.488 227.885C231.482 227.904 231.471 227.922 231.457 227.936C231.447 227.951 231.434 227.965 231.418 227.974ZM229.887 226.34H229.822C229.622 226.411 229.622 226.495 229.622 226.521C229.622 226.857 230.559 227.47 231.211 227.677C231.061 227.158 230.743 226.704 230.307 226.385C230.177 226.319 230.028 226.303 229.887 226.34Z" fill="#E5AC00"/>
<path d="M222.121 93.2793L215.382 96.3806L214.6 98.319L217.087 99.9924C217.087 99.9924 221.739 99.4884 223.064 96.4969L222.121 93.2793Z" fill="#E58A7B"/>
<path d="M222.405 97.3044C222.254 96.0096 221.827 94.7623 221.151 93.6474L222.218 92.8462C223.019 94.1309 223.531 95.5752 223.716 97.0782L222.405 97.3044Z" fill="#263238"/>
<path d="M223.555 94.1966C223.697 94.4207 223.767 94.6832 223.755 94.9485C223.743 95.2137 223.65 95.4688 223.488 95.6791C223.326 95.8894 223.103 96.0446 222.849 96.1236C222.596 96.2027 222.324 96.2017 222.071 96.1208C221.818 96.04 221.596 95.8832 221.436 95.6717C221.275 95.4603 221.183 95.2045 221.173 94.9392C221.163 94.6739 221.235 94.4118 221.379 94.1888C221.523 93.9658 221.732 93.7925 221.978 93.6926C222.255 93.5519 222.575 93.5259 222.87 93.6203C223.166 93.7147 223.412 93.9218 223.555 94.1966Z" fill="#263238"/>
<path d="M210.827 98.8875L211.725 99.7921L217.772 97.2076L215.382 96.3806L210.827 98.8875Z" fill="#E58A7B"/>
<path opacity="0.2" d="M236.794 216.984C236.833 216.984 237.711 219.452 237.711 219.452L228.769 223.212L227.361 220.589L236.794 216.984Z" fill="black"/>
<path opacity="0.2" d="M255.072 220.118C255.111 220.118 255.37 222.605 255.37 222.605H245.575L244.877 219.749L255.072 220.118Z" fill="black"/>
<path d="M253.56 67.48C255.337 73.211 248.392 81.0483 248.392 81.0483L238.797 77.1329C239.934 73.8204 241.245 70.5703 242.725 67.396C245.671 61.0447 251.764 61.6973 253.56 67.48Z" fill="#E5AC00"/>
<path opacity="0.2" d="M253.56 67.48C255.337 73.211 248.392 81.0483 248.392 81.0483L238.797 77.1329C239.934 73.8204 241.245 70.5703 242.725 67.396C245.671 61.0447 251.764 61.6973 253.56 67.48Z" fill="black"/>
<path d="M158.22 10.0598H154.091V10.7253H158.22V10.0598Z" fill="#E5AC00"/>
<path d="M211.665 36.3996L211.166 47.4885L211.83 47.5185L212.33 36.4295L211.665 36.3996Z" fill="#E5AC00"/>
<path d="M210.381 13.0448H134.139L127.045 171.808H203.286L210.381 13.0448Z" fill="#E5AC00"/>
<path opacity="0.56" d="M208.106 15.2288H131.865L124.771 173.992H201.012L208.106 15.2288Z" fill="#FAFAFA"/>
<path opacity="0.07" d="M205.832 17.4061H129.591L122.49 176.169H198.731L205.832 17.4061Z" fill="#E5AC00"/>
<path d="M197.155 86.6499H132.078L131.536 98.7968H196.612L197.155 86.6499Z" fill="white"/>
<path d="M167.867 77.7854H132.473L132.233 83.2192H167.628L167.867 77.7854Z" fill="#E5AC00"/>
<path d="M195.688 119.434H130.612L130.069 131.581H195.145L195.688 119.434Z" fill="white"/>
<path opacity="0.47" d="M183.754 147.985H139.993L139.341 162.542H183.102L183.754 147.985Z" fill="#E5AC00"/>
<path d="M180.828 164.804H137.066C137.047 164.809 137.027 164.809 137.008 164.804C137.002 164.785 137.002 164.765 137.008 164.746L137.654 150.182C137.654 150.172 137.656 150.163 137.66 150.154C137.664 150.144 137.67 150.136 137.677 150.13C137.685 150.123 137.693 150.118 137.703 150.115C137.712 150.112 137.722 150.11 137.732 150.111H181.493C181.501 150.107 181.51 150.105 181.519 150.105C181.528 150.105 181.537 150.107 181.545 150.111C181.549 150.119 181.552 150.128 181.552 150.137C181.552 150.146 181.549 150.155 181.545 150.163L180.912 164.759C180.904 164.774 180.892 164.786 180.877 164.794C180.862 164.802 180.845 164.806 180.828 164.804ZM137.144 164.649H180.75L181.396 150.241H137.79L137.144 164.649Z" fill="white"/>
<path d="M160.223 110.569H131.006L130.767 116.009H159.978L160.223 110.569Z" fill="#E5AC00"/>
<path d="M182.921 47.4115C182.754 50.9466 181.497 54.3434 179.322 57.1355C177.712 59.2445 175.641 60.9566 173.266 62.1405C170.892 63.3244 168.278 63.9485 165.625 63.9649C163.481 63.9813 161.356 63.5585 159.381 62.7226C157.407 61.8868 155.625 60.6555 154.144 59.1047C152.663 57.5539 151.516 55.7164 150.773 53.7054C150.029 51.6944 149.705 49.5525 149.821 47.4115C150.048 42.9688 151.964 38.7808 155.176 35.7039C158.389 32.6269 162.656 30.8935 167.104 30.8581C169.25 30.8381 171.377 31.2583 173.354 32.0927C175.33 32.9271 177.115 34.1581 178.597 35.7094C180.08 37.2608 181.228 39.0997 181.972 41.1124C182.716 43.1252 183.039 45.269 182.921 47.4115Z" fill="white"/>
<path d="M184.478 34.3212C184.436 35.2612 184.102 36.1646 183.522 36.9057C183.093 37.4658 182.541 37.9206 181.91 38.2352C181.278 38.5499 180.583 38.7161 179.878 38.7213C179.194 38.7254 178.52 38.5621 177.914 38.2456C177.308 37.9291 176.789 37.4691 176.402 36.9057C175.889 36.1443 175.635 35.2381 175.678 34.3212C175.741 33.1417 176.251 32.0304 177.104 31.214C177.958 30.3976 179.091 29.9375 180.272 29.9277C180.842 29.9225 181.407 30.034 181.932 30.2554C182.457 30.4768 182.931 30.8034 183.325 31.215C183.719 31.6266 184.025 32.1146 184.223 32.6488C184.421 33.183 184.508 33.7522 184.478 34.3212Z" fill="#E5AC00"/>
<path d="M139.089 92.7236C139.058 93.2442 138.83 93.7337 138.453 94.0934C138.075 94.4531 137.575 94.6563 137.053 94.6619C136.802 94.6649 136.552 94.6162 136.32 94.5189C136.087 94.4215 135.878 94.2775 135.703 94.0958C135.529 93.9142 135.393 93.6987 135.306 93.4626C135.218 93.2266 135.179 92.975 135.193 92.7236C135.221 92.2018 135.447 91.7105 135.825 91.3502C136.204 90.9899 136.705 90.7878 137.228 90.7852C137.479 90.7832 137.729 90.8325 137.961 90.9302C138.192 91.0279 138.402 91.1719 138.576 91.3533C138.75 91.5348 138.886 91.7499 138.974 91.9855C139.062 92.2212 139.101 92.4723 139.089 92.7236Z" fill="#263238"/>
<path d="M147.798 92.7234C147.769 93.2446 147.542 93.735 147.164 94.095C146.786 94.455 146.285 94.6576 145.763 94.6617C145.512 94.6638 145.263 94.6145 145.031 94.5167C144.8 94.419 144.591 94.2749 144.417 94.0933C144.243 93.9117 144.109 93.6965 144.021 93.4609C143.934 93.2253 143.895 92.9743 143.909 92.7234C143.937 92.2028 144.162 91.7124 144.539 91.3522C144.916 90.9921 145.416 90.7892 145.937 90.785C146.189 90.782 146.439 90.8307 146.671 90.9281C146.904 91.0255 147.113 91.1694 147.288 91.3511C147.462 91.5328 147.597 91.7483 147.685 91.9843C147.773 92.2204 147.812 92.4719 147.798 92.7234Z" fill="#263238"/>
<path d="M156.514 92.7234C156.485 93.2446 156.258 93.735 155.88 94.095C155.502 94.455 155.001 94.6576 154.479 94.6617C154.228 94.6638 153.978 94.6145 153.746 94.5168C153.515 94.4191 153.305 94.2751 153.131 94.0936C152.957 93.9121 152.821 93.697 152.733 93.4614C152.645 93.2258 152.606 92.9746 152.618 92.7234C152.648 92.2022 152.875 91.7118 153.253 91.3518C153.631 90.9918 154.132 90.7891 154.654 90.785C154.905 90.782 155.155 90.8307 155.387 90.9281C155.62 91.0255 155.829 91.1694 156.004 91.3511C156.178 91.5328 156.314 91.7483 156.401 91.9843C156.489 92.2204 156.528 92.4719 156.514 92.7234Z" fill="#263238"/>
<path d="M137.622 125.507C137.591 126.028 137.364 126.517 136.986 126.877C136.608 127.237 136.108 127.44 135.587 127.446C135.335 127.448 135.086 127.398 134.854 127.301C134.622 127.203 134.413 127.059 134.239 126.877C134.064 126.696 133.929 126.481 133.841 126.245C133.753 126.01 133.714 125.759 133.726 125.507C133.756 124.986 133.982 124.496 134.36 124.136C134.738 123.776 135.239 123.573 135.761 123.569C136.013 123.567 136.262 123.616 136.494 123.714C136.726 123.812 136.935 123.956 137.109 124.137C137.284 124.318 137.419 124.534 137.507 124.769C137.595 125.005 137.634 125.256 137.622 125.507Z" fill="#263238"/>
<path d="M146.332 125.507C146.302 126.027 146.076 126.517 145.7 126.877C145.323 127.237 144.824 127.44 144.303 127.446C144.051 127.449 143.801 127.4 143.569 127.303C143.337 127.205 143.127 127.061 142.952 126.88C142.778 126.698 142.643 126.482 142.555 126.246C142.467 126.01 142.429 125.759 142.442 125.507C142.472 124.986 142.698 124.496 143.076 124.136C143.454 123.776 143.955 123.573 144.477 123.569C144.729 123.567 144.978 123.616 145.209 123.714C145.441 123.812 145.65 123.956 145.823 124.137C145.997 124.319 146.132 124.534 146.219 124.77C146.307 125.005 146.345 125.256 146.332 125.507Z" fill="#263238"/>
<path d="M155.067 125.507C155.037 126.029 154.811 126.519 154.433 126.879C154.055 127.239 153.554 127.442 153.032 127.446C152.78 127.447 152.532 127.397 152.3 127.299C152.069 127.201 151.86 127.057 151.686 126.876C151.512 126.694 151.376 126.479 151.288 126.244C151.199 126.009 151.16 125.758 151.171 125.507C151.202 124.987 151.429 124.497 151.807 124.137C152.185 123.778 152.685 123.575 153.206 123.569C153.458 123.566 153.708 123.615 153.94 123.712C154.172 123.809 154.382 123.953 154.557 124.135C154.731 124.317 154.866 124.532 154.954 124.768C155.042 125.004 155.08 125.256 155.067 125.507Z" fill="#263238"/>
<path d="M163.764 125.507C163.733 126.028 163.505 126.517 163.128 126.877C162.75 127.237 162.25 127.44 161.728 127.446C161.477 127.447 161.228 127.397 160.997 127.299C160.766 127.201 160.556 127.057 160.382 126.875C160.208 126.694 160.073 126.479 159.985 126.244C159.896 126.009 159.856 125.758 159.868 125.507C159.899 124.987 160.126 124.497 160.504 124.137C160.881 123.778 161.381 123.575 161.903 123.569C162.155 123.567 162.404 123.616 162.636 123.714C162.867 123.812 163.077 123.956 163.251 124.137C163.425 124.318 163.561 124.534 163.649 124.769C163.737 125.005 163.776 125.256 163.764 125.507Z" fill="#263238"/>
<path d="M172.512 125.507C172.481 126.028 172.254 126.517 171.876 126.877C171.498 127.237 170.998 127.44 170.477 127.446C170.225 127.449 169.975 127.4 169.743 127.303C169.511 127.205 169.301 127.061 169.126 126.88C168.952 126.698 168.817 126.482 168.729 126.246C168.641 126.01 168.603 125.759 168.616 125.507C168.646 124.986 168.872 124.496 169.25 124.136C169.628 123.776 170.129 123.573 170.651 123.569C170.903 123.567 171.152 123.616 171.384 123.714C171.616 123.812 171.825 123.956 171.999 124.137C172.174 124.318 172.309 124.534 172.397 124.769C172.485 125.005 172.524 125.256 172.512 125.507Z" fill="#263238"/>
<path d="M171.19 46.5493C173.894 43.9048 174.038 39.6658 171.51 37.0814C168.983 34.497 164.742 34.5458 162.038 37.1903C159.333 39.8349 159.19 44.0738 161.717 46.6583C164.244 49.2427 168.485 49.1939 171.19 46.5493Z" fill="#E5AC00"/>
<path d="M179.322 57.1357C177.712 59.2447 175.641 60.9568 173.266 62.1407C170.892 63.3246 168.278 63.9487 165.625 63.9651C163.052 63.9869 160.513 63.3754 158.233 62.1844C155.952 60.9934 153.999 59.2595 152.547 57.1357C155.687 54.0085 160.656 51.9668 166.161 51.9668C171.666 51.9668 176.46 54.0085 179.322 57.1357Z" fill="#E5AC00"/>
<path opacity="0.1" d="M171.19 46.5493C173.894 43.9048 174.038 39.6658 171.51 37.0814C168.983 34.497 164.742 34.5458 162.038 37.1903C159.333 39.8349 159.19 44.0738 161.717 46.6583C164.244 49.2427 168.485 49.1939 171.19 46.5493Z" fill="white"/>
<path opacity="0.1" d="M179.322 57.1357C177.712 59.2447 175.641 60.9568 173.266 62.1407C170.892 63.3246 168.278 63.9487 165.625 63.9651C163.052 63.9869 160.513 63.3754 158.233 62.1844C155.952 60.9934 153.999 59.2595 152.547 57.1357C155.687 54.0085 160.656 51.9668 166.161 51.9668C171.666 51.9668 176.46 54.0085 179.322 57.1357Z" fill="white"/>
</g>
<defs>
<clipPath id="clip0_147_4602">
<rect width="323.056" height="241" fill="white"/>
</clipPath>
</defs>
</svg>
