<svg width="24" height="24" viewBox="0 0 24 24" fill="none" xmlns="http://www.w3.org/2000/svg">
<g clip-path="url(#clip0_309_1916)">
<path d="M24 7.78758V7.78125C24 7.63439 23.951 7.48997 23.8796 7.38769L21.1797 3.29288C21.0643 1.45781 19.5355 0 17.6719 0H6.32812C4.46452 0 2.93569 1.45781 2.82028 3.29288L0.120422 7.38769C0.0517969 7.48594 0.0058125 7.60481 0 7.78758V7.78908V9.75C0 10.8115 0.563203 11.7436 1.40625 12.2642V22.5938H0.703125C0.314812 22.5938 0 22.9086 0 23.2969C0 23.6852 0.314812 24 0.703125 24H23.2969C23.6852 24 24 23.6852 24 23.2969C24 22.9086 23.6852 22.5938 23.2969 22.5938H22.5938V12.2642C23.4368 11.7436 24 10.8115 24 9.75C24 9.75 24 7.78809 24 7.78758ZM2.00892 7.07812L3.89423 4.21875H20.1058L21.9911 7.07812C21.1696 7.07812 3.86208 7.07812 2.00892 7.07812ZM14.9531 8.48438H18.0938V9.75C18.0938 10.5885 17.3639 11.2969 16.5 11.2969C15.6471 11.2969 14.9531 10.6029 14.9531 9.75V8.48438ZM10.4531 8.48438H13.5469V9.75C13.5469 10.6029 12.8529 11.2969 12 11.2969C11.1471 11.2969 10.4531 10.6029 10.4531 9.75V8.48438ZM5.90625 8.48438H9.04688V9.75C9.04688 10.6029 8.35294 11.2969 7.5 11.2969C6.63609 11.2969 5.90625 10.5885 5.90625 9.75V8.48438ZM1.40625 9.75V8.48438H4.5V9.75C4.5 10.6029 3.80606 11.2969 2.95312 11.2969C2.10019 11.2969 1.40625 10.6029 1.40625 9.75ZM6.32812 1.40625H17.6719C18.5886 1.40625 19.3706 1.99402 19.6608 2.8125H4.33922C4.62942 1.99402 5.41144 1.40625 6.32812 1.40625ZM21.1875 15.5156V19.7812H11.2969V15.5156H21.1875ZM9.89062 22.5938H5.625V15.5156H9.89062V22.5938ZM11.2969 22.5938V21.1875H21.1875V22.5938H11.2969ZM21.1875 14.1094H4.92188C4.53356 14.1094 4.21875 14.4242 4.21875 14.8125V22.5938H2.8125V12.6996C2.85914 12.7018 2.90597 12.7031 2.95312 12.7031C3.85852 12.7031 4.66969 12.2932 5.2118 11.6496C5.7968 12.327 6.62541 12.7031 7.5 12.7031C8.40066 12.7031 9.20789 12.2974 9.75 11.6596C10.2921 12.2974 11.0993 12.7031 12 12.7031C12.9007 12.7031 13.7079 12.2974 14.25 11.6596C14.7921 12.2974 15.5993 12.7031 16.5 12.7031C17.374 12.7031 18.2028 12.3274 18.7882 11.6496C19.3303 12.2932 20.1415 12.7031 21.0469 12.7031C21.094 12.7031 21.1409 12.7018 21.1875 12.6996V14.1094ZM22.5938 9.75C22.5938 10.6029 21.8998 11.2969 21.0469 11.2969C20.1939 11.2969 19.5 10.6029 19.5 9.75V8.48438H22.5938V9.75Z" fill="#363636"/>
</g>
<defs>
<clipPath id="clip0_309_1916">
<rect width="24" height="24" fill="white"/>
</clipPath>
</defs>
</svg>
