<svg width="324" height="241" viewBox="0 0 324 241" fill="none" xmlns="http://www.w3.org/2000/svg">
<g clip-path="url(#clip0_147_4537)">
<path d="M323.056 211.537H0V211.699H323.056V211.537Z" fill="#EBEBEB"/>
<path d="M57.8271 215.937H33.8951V216.099H57.8271V215.937Z" fill="#EBEBEB"/>
<path d="M155.067 219.433H109.193V219.594H155.067V219.433Z" fill="#EBEBEB"/>
<path d="M94.1192 216.015H61.329V216.176H94.1192V216.015Z" fill="#EBEBEB"/>
<path d="M294.272 220.848H262.826V221.009H294.272V220.848Z" fill="#EBEBEB"/>
<path d="M259.95 220.848H239.294V221.009H259.95V220.848Z" fill="#EBEBEB"/>
<path d="M219.174 218.121H179.109V218.283H219.174V218.121Z" fill="#EBEBEB"/>
<path d="M153.129 182.721H28.3708C27.3935 182.719 26.4567 182.329 25.7662 181.638C25.0758 180.946 24.688 180.009 24.688 179.031V3.657C24.6965 2.68526 25.088 1.75612 25.7776 1.0714C26.4672 0.386671 27.399 0.00166464 28.3708 0H153.129C154.107 0 155.046 0.388693 155.737 1.08057C156.429 1.77245 156.818 2.71084 156.818 3.6893V179.031C156.818 180.01 156.429 180.948 155.737 181.64C155.046 182.332 154.107 182.721 153.129 182.721ZM28.3708 0.129223C27.4363 0.130935 26.5407 0.503364 25.8805 1.16476C25.2203 1.82617 24.8495 2.72249 24.8495 3.657V179.031C24.8495 179.966 25.2203 180.862 25.8805 181.524C26.5407 182.185 27.4363 182.557 28.3708 182.559H153.129C154.064 182.557 154.96 182.185 155.621 181.524C156.283 180.863 156.655 179.966 156.656 179.031V3.657C156.655 2.7219 156.283 1.82559 155.621 1.16437C154.96 0.503154 154.064 0.130931 153.129 0.129223H28.3708Z" fill="#EBEBEB"/>
<path d="M292.889 182.721H168.125C167.147 182.719 166.21 182.33 165.518 181.638C164.827 180.947 164.437 180.009 164.436 179.031V3.657C164.446 2.68467 164.839 1.75554 165.529 1.07099C166.22 0.386446 167.153 0.00164648 168.125 0H292.889C293.86 0.00336269 294.79 0.389121 295.478 1.07366C296.167 1.75821 296.557 2.68638 296.566 3.657V179.031C296.566 180.008 296.179 180.944 295.49 181.636C294.801 182.327 293.866 182.717 292.889 182.721ZM168.125 0.129223C167.19 0.130931 166.294 0.503154 165.632 1.16437C164.971 1.82559 164.599 2.7219 164.597 3.657V179.031C164.599 179.966 164.971 180.863 165.632 181.524C166.294 182.185 167.19 182.557 168.125 182.559H292.889C293.824 182.557 294.721 182.185 295.382 181.524C296.043 180.863 296.415 179.966 296.417 179.031V3.657C296.415 2.7219 296.043 1.82559 295.382 1.16437C294.721 0.503154 293.824 0.130931 292.889 0.129223H168.125Z" fill="#EBEBEB"/>
<path d="M281.46 209.547H231.063C228.712 209.547 226.457 208.613 224.795 206.951C223.132 205.289 222.198 203.034 222.198 200.683V155.403C222.198 153.052 223.132 150.797 224.795 149.135C226.457 147.472 228.712 146.538 231.063 146.538H281.46V209.547Z" fill="#F0F0F0"/>
<path d="M281.046 209.547H281.88C286.775 209.547 290.744 205.579 290.744 200.683V155.403C290.744 150.507 286.775 146.538 281.88 146.538H281.046C276.15 146.538 272.181 150.507 272.181 155.403V200.683C272.181 205.579 276.15 209.547 281.046 209.547Z" fill="#F5F5F5"/>
<path d="M274.708 169.779H164.274V209.547H274.708V169.779Z" fill="#F0F0F0"/>
<path d="M280.116 211.537H116.895C116.656 211.538 116.419 211.492 116.198 211.401C115.977 211.31 115.776 211.177 115.607 211.008C115.437 210.839 115.303 210.639 115.211 210.418C115.12 210.197 115.073 209.961 115.073 209.722V209.547H231.024L281.931 209.722C281.931 210.203 281.74 210.665 281.399 211.006C281.059 211.346 280.597 211.537 280.116 211.537Z" fill="#E0E0E0"/>
<path d="M127.439 120.397H233.298C236.576 120.397 239.72 121.699 242.038 124.017C244.356 126.335 245.658 129.479 245.658 132.757V178.767H115.073V132.757C115.073 129.479 116.375 126.335 118.693 124.017C121.011 121.699 124.155 120.397 127.433 120.397H127.439Z" fill="#E0E0E0"/>
<path d="M135.916 120.397H242.938C246.059 120.397 249.051 121.636 251.258 123.843C253.464 126.049 254.704 129.042 254.704 132.162V178.773H124.151V132.162C124.151 129.042 125.39 126.049 127.597 123.843C129.803 121.636 132.796 120.397 135.916 120.397Z" fill="#F5F5F5"/>
<path d="M269.429 166.148H172.68C171.2 166.148 169.78 166.736 168.733 167.783C167.686 168.83 167.098 170.25 167.098 171.73V176.764C167.098 178.244 167.686 179.664 168.733 180.711C169.78 181.758 171.2 182.346 172.68 182.346H269.429C270.493 182.346 271.546 182.136 272.529 181.729C273.511 181.322 274.404 180.725 275.156 179.973C275.908 179.22 276.504 178.327 276.91 177.344C277.317 176.361 277.526 175.307 277.525 174.244C277.525 172.097 276.672 170.037 275.154 168.519C273.635 167.001 271.576 166.148 269.429 166.148Z" fill="#E0E0E0"/>
<path d="M163.99 209.547H113.593C111.242 209.547 108.987 208.613 107.325 206.951C105.662 205.289 104.728 203.034 104.728 200.683V155.403C104.728 153.052 105.662 150.797 107.325 149.135C108.987 147.472 111.242 146.538 113.593 146.538H163.99V209.547Z" fill="#F0F0F0"/>
<path d="M163.57 209.547H164.403C169.299 209.547 173.268 205.579 173.268 200.683V155.403C173.268 150.507 169.299 146.538 164.403 146.538H163.57C158.674 146.538 154.705 150.507 154.705 155.403V200.683C154.705 205.579 158.674 209.547 163.57 209.547Z" fill="#F5F5F5"/>
<path d="M259.13 24.2422H213.495V91.3475H259.13V24.2422Z" fill="#E0E0E0"/>
<path d="M261.876 24.2422H214.742V91.3475H261.876V24.2422Z" fill="#F5F5F5"/>
<path d="M218.69 29.5273V86.0557H257.928V29.5273H218.69Z" fill="white"/>
<path d="M233.428 60.5213V64.8244C234.71 64.8244 235.979 64.5719 237.164 64.0813C238.348 63.5907 239.424 62.8715 240.331 61.965C241.237 61.0584 241.957 59.9822 242.447 58.7977C242.938 57.6132 243.19 56.3437 243.19 55.0617V50.7585C241.908 50.7577 240.638 51.0096 239.453 51.5C238.268 51.9903 237.192 52.7094 236.285 53.6161C235.378 54.5228 234.659 55.5994 234.169 56.7843C233.679 57.9691 233.427 59.239 233.428 60.5213Z" fill="#F5F5F5"/>
<path d="M233.428 46.0097V50.3128C236.016 50.3111 238.498 49.282 240.329 47.4515C242.159 45.621 243.189 43.1388 243.19 40.5501V36.2405C241.908 36.2405 240.638 36.4932 239.453 36.9842C238.268 37.4753 237.191 38.195 236.285 39.1022C235.378 40.0095 234.659 41.0865 234.169 42.2717C233.679 43.4569 233.427 44.7271 233.428 46.0097Z" fill="#F5F5F5"/>
<path d="M233.428 75.0395V79.3426C236.017 79.3409 238.501 78.3109 240.331 76.479C242.162 74.6471 243.19 72.1632 243.19 69.5734V65.2573C241.907 65.2573 240.636 65.5105 239.45 66.0023C238.264 66.4942 237.187 67.215 236.28 68.1236C235.373 69.0322 234.655 70.1108 234.165 71.2975C233.676 72.4842 233.425 73.7558 233.428 75.0395Z" fill="#F5F5F5"/>
<path d="M191.353 76.8745V29.5273L42.3204 29.5273V76.8745H191.353Z" fill="#EBEBEB"/>
<path d="M42.3204 76.8745V29.5273H41.4223V76.8745H42.3204Z" fill="#E0E0E0"/>
<path d="M184.006 36.8735H49.6667V69.5281H184.006V36.8735Z" fill="#F5F5F5"/>
<path d="M81.8625 69.5281H70.7041L79.4395 36.8735H90.5979L81.8625 69.5281Z" fill="white"/>
<path d="M92.239 69.5281H85.7844L94.5198 36.8735H100.974L92.239 69.5281Z" fill="white"/>
<path d="M148.406 69.5281H141.951L150.686 36.8735H157.141L148.406 69.5281Z" fill="white"/>
<path d="M100.354 157.387H64.23L59.7589 108.308H95.8896L100.354 157.387Z" fill="#E6E6E6"/>
<path d="M102.228 157.387H66.0973L61.6327 108.308H97.7633L102.228 157.387Z" fill="#F0F0F0"/>
<path d="M71.0336 151.953L67.5575 113.742H92.8205L96.2966 151.953H71.0336Z" fill="white"/>
<path d="M127.433 157.386H122.568V211.531H127.433V157.386Z" fill="#E6E6E6"/>
<path d="M128.964 157.386H125.585V211.531H128.964V157.386Z" fill="#F5F5F5"/>
<path d="M78.6707 163.363H130.011V157.386H78.6707V163.363Z" fill="#F5F5F5"/>
<path d="M76.4933 163.363H71.6281V211.537H76.4933V163.363Z" fill="#E6E6E6"/>
<path d="M78.031 163.363H74.6519V211.537H78.031V163.363Z" fill="#F5F5F5"/>
<path d="M45.7125 163.363H40.8472V211.537H45.7125V163.363Z" fill="#E6E6E6"/>
<path d="M47.2502 163.363H43.871V211.537H47.2502V163.363Z" fill="#F5F5F5"/>
<path d="M96.652 163.363H91.7867V211.537H96.652V163.363Z" fill="#E6E6E6"/>
<path d="M98.1833 163.363H94.8041V211.537H98.1833V163.363Z" fill="#F5F5F5"/>
<path d="M78.6707 157.386H40.8472V163.363H78.6707V157.386Z" fill="#E6E6E6"/>
<path d="M161.528 240.716C230.715 240.716 286.803 237.441 286.803 233.402C286.803 229.362 230.715 226.088 161.528 226.088C92.3408 226.088 36.2534 229.362 36.2534 233.402C36.2534 237.441 92.3408 240.716 161.528 240.716Z" fill="#F5F5F5"/>
<path d="M98.5405 230.463L171.616 224.083C176.578 223.65 180.25 219.275 179.817 214.313L164.597 39.9958C164.163 35.0332 159.789 31.3615 154.826 31.7948L81.7513 38.1752C76.7887 38.6085 73.117 42.9827 73.5503 47.9453L88.7704 222.262C89.2037 227.225 93.5779 230.897 98.5405 230.463Z" fill="#E5AC00"/>
<path d="M79.0196 99.4303C79.6965 99.3663 80.321 99.0381 80.7576 98.5168C81.1942 97.9956 81.4078 97.3232 81.352 96.6456L79.3426 73.6569C79.2802 72.98 78.9536 72.3549 78.4336 71.9172C77.9135 71.4794 77.242 71.2641 76.5643 71.3179C75.8862 71.3804 75.2602 71.7079 74.8222 72.2293C74.3842 72.7508 74.1698 73.424 74.2254 74.1027L76.2413 97.0914C76.3037 97.7683 76.6303 98.3933 77.1504 98.8311C77.6704 99.2689 78.3419 99.4842 79.0196 99.4303Z" fill="#E5AC00"/>
<path d="M168.271 81.2476L169.166 81.1695C170.214 81.0779 170.99 80.1535 170.899 79.1048L169.672 65.0601C169.581 64.0114 168.657 63.2355 167.608 63.3271L166.713 63.4052C165.664 63.4968 164.889 64.4211 164.98 65.4698L166.206 79.5145C166.298 80.5632 167.222 81.3391 168.271 81.2476Z" fill="#263238"/>
<path d="M169.32 104.891L170.218 104.81C171.271 104.715 172.047 103.785 171.953 102.733L170.684 88.6345C170.589 87.5818 169.659 86.8052 168.606 86.9L167.708 86.9808C166.655 87.0755 165.879 88.0057 165.974 89.0584L167.242 103.157C167.337 104.209 168.267 104.986 169.32 104.891Z" fill="#263238"/>
<path d="M100.076 230.325L173.151 223.945C178.114 223.511 181.785 219.137 181.352 214.175L166.132 39.8576C165.699 34.895 161.324 31.2233 156.362 31.6566L83.2867 38.037C78.3241 38.4703 74.6524 42.8445 75.0857 47.8071L90.3058 222.124C90.7391 227.087 95.1133 230.758 100.076 230.325Z" fill="#263238"/>
<path opacity="0.4" d="M92.8787 219.471L178.327 212.009C178.774 211.968 179.186 211.752 179.474 211.408C179.762 211.064 179.903 210.621 179.865 210.174L165.405 44.3814C165.364 43.936 165.149 43.5248 164.806 43.2369C164.464 42.949 164.022 42.8077 163.576 42.8436L78.0956 50.3127C77.875 50.3322 77.6604 50.395 77.4641 50.4974C77.2677 50.5999 77.0935 50.74 76.9513 50.9098C76.8091 51.0796 76.7017 51.2757 76.6353 51.487C76.5689 51.6983 76.5448 51.9206 76.5643 52.1412L91.0502 217.94C91.0689 218.161 91.1311 218.376 91.2333 218.573C91.3354 218.77 91.4756 218.944 91.6455 219.087C91.8155 219.229 92.012 219.336 92.2236 219.402C92.4353 219.468 92.6579 219.492 92.8787 219.471Z" fill="#E5AC00"/>
<path opacity="0.3" d="M152.282 43.8323L141.544 215.22L123.685 216.784L134.424 45.3894L152.282 43.8323Z" fill="#E5AC00"/>
<path opacity="0.2" d="M129.3 38.3318L111.053 39.9251C110.63 39.962 110.317 40.3349 110.353 40.7579L110.418 41.4981C110.455 41.9211 110.828 42.2341 111.251 42.1972L129.499 40.6039C129.922 40.567 130.235 40.1941 130.198 39.7711L130.133 39.0309C130.096 38.6078 129.723 38.2949 129.3 38.3318Z" fill="white"/>
<path d="M112.294 104.748H201.206C203.515 104.755 205.728 105.675 207.362 107.308C208.995 108.941 209.915 111.154 209.922 113.464V157.076C209.915 159.387 208.995 161.6 207.362 163.234C205.729 164.869 203.516 165.79 201.206 165.799H170.438L156.747 179.49L143.056 165.799H112.294C109.983 165.792 107.768 164.871 106.134 163.237C104.5 161.602 103.579 159.388 103.572 157.076V113.464C103.579 111.153 104.5 108.939 106.135 107.306C107.769 105.673 109.984 104.753 112.294 104.748Z" fill="#E5AC00"/>
<path opacity="0.3" d="M112.294 104.748H201.206C203.515 104.755 205.728 105.675 207.362 107.308C208.995 108.941 209.915 111.154 209.922 113.464V157.076C209.915 159.387 208.995 161.6 207.362 163.234C205.729 164.869 203.516 165.79 201.206 165.799H170.438L156.747 179.49L143.056 165.799H112.294C109.983 165.792 107.768 164.871 106.134 163.237C104.5 161.602 103.579 159.388 103.572 157.076V113.464C103.579 111.153 104.5 108.939 106.135 107.306C107.769 105.673 109.984 104.753 112.294 104.748Z" fill="white"/>
<path d="M117.993 119.86V150.68C117.983 151.875 118.446 153.026 119.281 153.88C120.117 154.735 121.256 155.224 122.451 155.242H191.043C192.238 155.224 193.377 154.735 194.213 153.88C195.048 153.026 195.511 151.875 195.501 150.68V119.86C195.5 119.277 195.391 118.698 195.178 118.155C194.853 117.32 194.285 116.602 193.548 116.093C192.811 115.584 191.938 115.307 191.043 115.299H122.451C121.556 115.307 120.684 115.583 119.948 116.093C119.212 116.602 118.646 117.32 118.323 118.155C118.104 118.697 117.992 119.276 117.993 119.86Z" fill="white"/>
<path opacity="0.1" d="M118.323 118.155L151.481 132.595C153.143 133.321 154.937 133.695 156.75 133.695C158.564 133.695 160.357 133.321 162.019 132.595L195.178 118.155C194.852 117.32 194.285 116.602 193.548 116.093C192.811 115.584 191.938 115.307 191.043 115.299H122.451C121.556 115.307 120.684 115.583 119.948 116.093C119.212 116.602 118.646 117.32 118.323 118.155Z" fill="black"/>
<path d="M119.809 117.995C124.987 112.818 124.987 104.423 119.809 99.2454C114.632 94.0677 106.237 94.0677 101.059 99.2454C95.8817 104.423 95.8817 112.818 101.059 117.995C106.237 123.173 114.632 123.173 119.809 117.995Z" fill="#DE5753"/>
<path d="M112.992 116.701H109.904V105.071C108.762 106.133 107.401 106.931 105.917 107.41V104.612C106.87 104.262 107.757 103.753 108.54 103.107C109.423 102.45 110.096 101.553 110.479 100.522H112.986L112.992 116.701Z" fill="white"/>
<path d="M185.027 26.4389C184.567 26.4351 184.124 26.268 183.776 25.9673C183.428 25.6667 183.198 25.2522 183.128 24.7977C182.241 18.9729 179.081 13.7371 174.341 10.2381C169.601 6.73912 163.666 5.26236 157.839 6.13154C157.366 6.14397 156.905 5.98293 156.542 5.67876C156.18 5.37459 155.941 4.94832 155.871 4.4803C155.801 4.01228 155.905 3.53484 156.162 3.138C156.42 2.74116 156.814 2.45232 157.27 2.32594C164.106 1.30687 171.067 3.04046 176.627 7.14651C182.186 11.2526 185.89 17.3959 186.927 24.2292C186.997 24.7322 186.868 25.2429 186.566 25.6514C186.264 26.0598 185.813 26.3333 185.312 26.413C185.218 26.4309 185.123 26.4396 185.027 26.4389Z" fill="#E5AC00"/>
<path d="M175.471 27.8732C175.012 27.8697 174.57 27.7035 174.222 27.4041C173.874 27.1048 173.644 26.6918 173.572 26.2385C173.073 22.9452 171.288 19.9842 168.608 18.005C165.929 16.0258 162.574 15.1901 159.28 15.6811C158.806 15.6953 158.344 15.5355 157.98 15.2318C157.616 14.9282 157.376 14.5018 157.305 14.0332C157.234 13.5646 157.337 13.0863 157.595 12.6888C157.853 12.2912 158.248 12.0018 158.705 11.8755C163.008 11.2325 167.392 12.3232 170.892 14.9081C174.393 17.493 176.725 21.361 177.377 25.6635C177.45 26.1676 177.321 26.6799 177.019 27.0898C176.716 27.4997 176.265 27.7741 175.762 27.8538C175.666 27.8667 175.568 27.8732 175.471 27.8732Z" fill="#E5AC00"/>
<path d="M165.922 29.3141C165.462 29.3104 165.018 29.1432 164.67 28.8426C164.322 28.542 164.093 28.1274 164.022 27.673C163.966 27.2951 163.836 26.9319 163.639 26.6044C163.442 26.2769 163.183 25.9915 162.876 25.7645C162.568 25.5376 162.219 25.3736 161.848 25.282C161.477 25.1904 161.092 25.173 160.714 25.2307C160.245 25.2371 159.79 25.0733 159.433 24.7697C159.075 24.4661 158.84 24.0432 158.771 23.5794C158.701 23.1157 158.802 22.6425 159.055 22.2475C159.308 21.8526 159.695 21.5627 160.145 21.4315C161.025 21.2989 161.922 21.3414 162.785 21.5567C163.648 21.772 164.459 22.1559 165.173 22.6861C165.887 23.2163 166.489 23.8825 166.945 24.6463C167.401 25.4102 167.701 26.2565 167.828 27.1367C167.898 27.6398 167.769 28.1505 167.467 28.5589C167.165 28.9673 166.714 29.2409 166.212 29.3206C166.116 29.328 166.018 29.3259 165.922 29.3141Z" fill="#E5AC00"/>
</g>
<defs>
<clipPath id="clip0_147_4537">
<rect width="323.056" height="241" fill="white"/>
</clipPath>
</defs>
</svg>
