<svg width="24" height="24" viewBox="0 0 24 24" fill="none" xmlns="http://www.w3.org/2000/svg">
<g clip-path="url(#clip0_309_613)">
<path d="M0.46875 23.5828L2.1 17.6344C1.09219 15.8953 0.5625 13.9172 0.5625 11.8969C0.567188 5.56405 5.71875 0.417175 12.0469 0.417175C15.1172 0.417175 18.0047 1.61249 20.1703 3.7828C22.3406 5.95311 23.5359 8.83593 23.5313 11.9062C23.5266 18.2344 18.375 23.3859 12.0469 23.3859H12.0422C10.1203 23.3859 8.23125 22.9031 6.55313 21.9891L0.46875 23.5828Z" fill="url(#paint0_linear_309_613)"/>
<path d="M0.0515137 24L1.73901 17.8359C0.698389 16.0359 0.154639 13.9875 0.154639 11.8922C0.154639 5.33438 5.4937 0 12.0515 0C15.2343 0 18.2203 1.24219 20.4656 3.4875C22.7109 5.7375 23.9484 8.72344 23.9484 11.9016C23.9437 18.4594 18.6093 23.7938 12.0515 23.7938H12.0468C10.0546 23.7938 8.09995 23.2922 6.36089 22.3453L0.0515137 24ZM6.65151 20.1937L7.01245 20.4094C8.5312 21.3094 10.2703 21.7875 12.0468 21.7875H12.0515C17.5031 21.7875 21.9374 17.3531 21.9374 11.9016C21.9374 9.2625 20.9109 6.77812 19.0453 4.90781C17.1796 3.0375 14.6953 2.01094 12.0562 2.01094C6.59995 2.01094 2.16558 6.44531 2.16558 11.8969C2.16558 13.7625 2.68589 15.5813 3.67495 17.1562L3.90933 17.5312L2.91089 21.1781L6.65151 20.1937Z" fill="white"/>
<path fill-rule="evenodd" clip-rule="evenodd" d="M9.075 6.91876C8.85 6.42189 8.61563 6.41251 8.40469 6.40314C8.23125 6.39376 8.03438 6.39845 7.83281 6.39845C7.63594 6.39845 7.3125 6.47345 7.04062 6.76876C6.76875 7.06407 6 7.78595 6 9.24845C6 10.7109 7.06406 12.1266 7.21406 12.3234C7.36406 12.5203 9.27188 15.6188 12.2906 16.8094C14.8031 17.7984 15.3141 17.6016 15.8578 17.5547C16.4016 17.5078 17.6156 16.8375 17.8641 16.1438C18.1125 15.45 18.1125 14.8547 18.0375 14.7328C17.9625 14.6109 17.7656 14.5359 17.4656 14.3859C17.1703 14.2359 15.7078 13.5188 15.4359 13.4203C15.1641 13.3219 14.9672 13.2703 14.7656 13.5703C14.5688 13.8656 13.9969 14.5359 13.8234 14.7328C13.65 14.9297 13.4766 14.9578 13.1813 14.8078C12.8859 14.6578 11.925 14.3438 10.7906 13.3313C9.90469 12.5438 9.30937 11.5688 9.13594 11.2734C8.9625 10.9781 9.11719 10.8141 9.26719 10.6688C9.39844 10.5375 9.5625 10.3219 9.7125 10.1484C9.8625 9.97501 9.90937 9.85314 10.0078 9.65157C10.1062 9.4547 10.0594 9.28126 9.98438 9.13126C9.91875 8.97657 9.34219 7.50939 9.075 6.91876Z" fill="white"/>
</g>
<defs>
<linearGradient id="paint0_linear_309_613" x1="11.9999" y1="23.5847" x2="11.9999" y2="0.415582" gradientUnits="userSpaceOnUse">
<stop stop-color="#20B038"/>
<stop offset="1" stop-color="#60D66A"/>
</linearGradient>
<clipPath id="clip0_309_613">
<rect width="24" height="24" fill="white"/>
</clipPath>
</defs>
</svg>
