<svg width="24" height="24" viewBox="0 0 24 24" fill="none" xmlns="http://www.w3.org/2000/svg">
<g clip-path="url(#clip0_309_1732)">
<path d="M22.2134 9.96905C21.8685 9.79078 21.4442 9.92602 21.266 10.271L20.4478 11.8545L19.6601 10.2793C19.5411 10.0411 19.2976 9.89062 19.0312 9.89062C18.7649 9.89062 18.5214 10.0411 18.4024 10.2793L17.625 11.834L16.8476 10.2793C16.7216 10.0272 16.4577 9.87497 16.1757 9.89194L16.1332 9.89456C15.8198 9.91378 15.5673 10.1354 15.4944 10.4244C15.4465 10.2318 15.3183 10.0605 15.1269 9.96483C14.7797 9.79125 14.3573 9.93192 14.1836 10.2793L13.4062 11.834L12.6289 10.2793C12.5098 10.0411 12.2663 9.89062 12 9.89062C11.7337 9.89062 11.4902 10.0411 11.3711 10.2793L10.5938 11.834L9.81642 10.2793C9.64275 9.93202 9.22036 9.7912 8.87306 9.96488C8.68167 10.0605 8.55347 10.2319 8.50556 10.4244C8.43277 10.1354 8.18016 9.91373 7.86684 9.89452L7.82428 9.89189C7.54284 9.87455 7.27842 10.0271 7.15238 10.2793L6.375 11.834L5.59767 10.2793C5.34169 9.76861 4.60144 9.75614 4.33987 10.2793L3.55223 11.8546L2.73403 10.2711C2.55581 9.92606 2.13164 9.79092 1.78664 9.96914C1.44164 10.1474 1.30645 10.5716 1.48472 10.9166L2.93784 13.7291C3.20161 14.2396 3.93417 14.2352 4.19142 13.7208L4.96875 12.166L5.74613 13.7207C6.00506 14.2385 6.74559 14.2373 7.00392 13.7207L8.31403 11.1004C8.40619 11.0108 8.47392 10.8958 8.50608 10.7659C8.51831 10.8142 8.53547 10.8618 8.55862 10.9082L9.96487 13.7207C10.2238 14.2385 10.9643 14.2373 11.2227 13.7207L12 12.166L12.7773 13.7207C13.0363 14.2385 13.7768 14.2374 14.0351 13.7207L15.4414 10.9081C15.4645 10.8618 15.4817 10.8142 15.4939 10.7659C15.5261 10.8959 15.5938 11.0109 15.686 11.1005L16.9961 13.7207C17.255 14.2385 17.9956 14.2373 18.2539 13.7207L19.0312 12.166L19.8086 13.7207C20.0655 14.2347 20.7982 14.24 21.0622 13.729L22.5153 10.9164C22.6935 10.5714 22.5584 10.1473 22.2134 9.96905Z" fill="#363636"/>
<path d="M23.1109 7.46855C21.324 3.10739 16.9977 0 12 0C7.00106 0 2.67553 3.10847 0.889172 7.4685C0.351609 7.85119 0 8.47884 0 9.1875V14.8125C0 15.5212 0.351609 16.1488 0.889172 16.5315C2.67595 20.8925 7.00223 24 12 24C16.9989 24 21.3244 20.8915 23.1109 16.5315C23.6484 16.1488 24 15.5211 24 14.8125V9.1875C24 8.47889 23.6484 7.85123 23.1109 7.46855ZM21.3771 7.07812H17.7824C17.3355 5.16352 16.638 3.51506 15.7507 2.28478C15.6886 2.19886 15.6259 2.11552 15.5625 2.03423C18.0285 2.92687 20.1293 4.7197 21.3771 7.07812ZM12.7031 1.524C14.6271 2.16998 15.8302 5.08266 16.3353 7.07812H12.7031V1.524ZM11.2969 1.524V7.07812H7.66467C8.06855 5.48255 8.65833 4.12158 9.38986 3.10744C9.82936 2.49816 10.4831 1.79723 11.2969 1.524ZM8.43755 2.03423C8.37413 2.11552 8.31136 2.19881 8.24934 2.28478C7.36195 3.51506 6.66441 5.16352 6.21759 7.07812H2.62289C3.8707 4.7197 5.97145 2.92687 8.43755 2.03423ZM2.62289 16.9219H6.21759C6.62681 18.6752 7.3298 20.546 8.43755 21.9658C5.97145 21.0731 3.8707 19.2803 2.62289 16.9219ZM11.2969 22.476C9.37289 21.83 8.16975 18.9173 7.66467 16.9219H11.2969V22.476ZM12.7031 22.476V16.9125H16.3353C15.8295 18.9109 14.623 21.8314 12.7031 22.476ZM15.5625 21.9658C16.6701 20.5462 17.3731 18.6662 17.7824 16.9125H21.3771C20.1293 19.2709 18.0285 21.0731 15.5625 21.9658ZM22.5938 14.8125C22.5938 15.2002 22.2783 15.5156 21.8906 15.5156C21.4445 15.5156 2.61937 15.5156 2.10938 15.5156C1.72167 15.5156 1.40625 15.2002 1.40625 14.8125V9.1875C1.40625 8.7998 1.72167 8.48438 2.10938 8.48438C2.64539 8.48438 21.4093 8.48438 21.8906 8.48438C22.2783 8.48438 22.5938 8.7998 22.5938 9.1875V14.8125Z" fill="#363636"/>
</g>
<defs>
<clipPath id="clip0_309_1732">
<rect width="24" height="24" fill="white"/>
</clipPath>
</defs>
</svg>
